<?xml version="1.0" encoding="utf-8"?>
<svg version="1.1" id="Layer_1"
xmlns="http://www.w3.org/2000/svg"
xmlns:xlink="http://www.w3.org/1999/xlink"
width="550px" height="400px"
xml:space="preserve">
<g id="PathID_1" transform="matrix(4.05637, 0, 0, 2.44973, 238.65, 226.1)" opacity="1">
<path style="fill:#D98F30;fill-opacity:1" d="M36 -36.1Q51 -21.1 51 0Q51 21.1 36 36Q21.1 51 0 51Q-21.1 51 -36.1 36Q-51 21.1 -51 0Q-51 -21.1 -36.1 -36.1Q-21.1 -51 0 -51Q21.1 -51 36 -36.1" />
</g>
<g id="PathID_2" transform="matrix(3.91292, 0, 0, 2.3631, 238.9, 226.25)" opacity="1">
<path style="fill:#FFF54D;fill-opacity:1" d="M36 -36.1Q51 -21.1 51 0Q51 21.1 36 36Q21.1 51 0 51Q-21.1 51 -36.1 36Q-51 21.1 -51 0Q-51 -21.1 -36.1 -36.1Q-21.1 -51 0 -51Q21.1 -51 36 -36.1" />
</g>
<g id="PathID_3" transform="matrix(0.623295, -0.229089, 0.229089, 0.623295, 155.7, 148.45)" opacity="1">
<path style="fill:#000000;fill-opacity:1" d="M9.2 -35.15Q10.15 -36.25 11.75 -36.25Q12.3 -36.25 12.8 -36.1L8.7 -5Q8.5 -3.65 8.6 -2.9Q8.75 -2.2 9.05 -1.9Q9.35 -1.55 9.75 -1.45L10.55 -1.25Q10.9 -1.15 11.15 -0.9Q11.35 -0.65 11.3 0L6.5 0L0.35 0Q0.3 -0.65 0.5 -0.9Q0.75 -1.2 1.1 -1.35L1.95 -1.6Q2.4 -1.75 2.85 -2.1Q3.25 -2.45 3.6 -3.15Q3.95 -3.85 4.15 -5.15L7.95 -31.9Q8.25 -34.05 9.2 -35.15M43.15 -4.35Q43.35 -3.35 43.75 -2.8Q44.1 -2.25 44.5 -1.95L45.35 -1.55L46.15 -1.3Q46.45 -1.2 46.65 -0.9Q46.85 -0.6 46.8 0L35.8 0Q35.75 -0.65 36 -0.9Q36.25 -1.15 36.6 -1.25Q36.95 -1.4 37.4 -1.45Q37.8 -1.55 38.1 -1.9Q38.4 -2.25 38.55 -2.95Q38.65 -3.65 38.45 -5L35.1 -29.25L35.05 -29.5L26.85 -3.2Q26.25 -1.3 25.5 -0.45Q24.7 0.4 23.6 0.4Q22.4 0.4 21.65 -0.4Q21.25 -0.8 20.9 -1.5Q20.55 -2.2 20.25 -3.2L17.25 -13.05L16.05 -16.95L14.85 -20.75L13.9 -23.95L13.2 -26.25L14.3 -35.35Q14.7 -34.8 15.05 -34.1Q15.4 -33.35 15.6 -32.65L23.6 -7.15L31.5 -32.65Q32.05 -34.4 33.05 -35.35Q34 -36.25 35.35 -36.25Q36.95 -36.25 37.9 -35.15Q38.85 -34.05 39.15 -31.9L43.15 -4.35" />
</g>
<g id="PathID_4" transform="matrix(0.623295, -0.229089, 0.229089, 0.623295, 184.8, 137.8)" opacity="1">
<path style="fill:#000000;fill-opacity:1" d="M3.2 10.3L2.7 6.05Q4.15 6.45 5.25 6.45Q6.75 6.45 7.65 5.95Q8.55 5.45 9.1 4.55Q9.55 3.9 10.5 1.2L10.9 0.1L0.8 -26.55L5.6 -26.55L11.15 -11.15Q12.2 -8.25 13.05 -5Q13.85 -8.1 14.95 -11.05L20.65 -26.55L25.15 -26.55L15.05 0.5Q13.45 4.85 12.55 6.5Q11.35 8.75 9.8 9.75Q8.25 10.8 6.1 10.8Q4.8 10.8 3.2 10.3M4.85 -29.85Q4.85 -32.45 6.3 -34Q7.7 -35.6 9.95 -35.6Q11.5 -35.6 14.2 -34.25Q15.65 -33.5 16.55 -33.5Q17.35 -33.5 17.75 -33.9Q18.2 -34.35 18.35 -35.7L21.6 -35.7Q21.55 -32.8 20.15 -31.35Q18.8 -29.95 16.7 -29.95Q15.15 -29.95 12.55 -31.35Q10.9 -32.3 10.1 -32.3Q9.25 -32.3 8.75 -31.65Q8.2 -31.05 8.2 -29.85L4.85 -29.85" />
</g>
<g id="PathID_5" transform="matrix(0.664063, 0, 0, 0.664063, 218.95, 136.4)" opacity="1">
<path style="fill:#000000;fill-opacity:1" d="M8.15 -4.45Q8.25 -3.45 8.55 -2.9Q8.85 -2.35 9.2 -2.1Q9.6 -1.8 10 -1.7L10.7 -1.4Q11 -1.25 11.2 -0.95Q11.4 -0.65 11.35 0L-0.05 0Q-0.1 -0.7 0.1 -1Q0.3 -1.3 0.7 -1.45L1.45 -1.75Q1.9 -1.9 2.3 -2.25Q2.65 -2.65 2.95 -3.35Q3.2 -4.1 3.2 -5.4L3.25 -5.4L3.25 -31.15L3.2 -31.15Q3.15 -32.25 2.85 -32.9Q2.6 -33.5 2.25 -33.8Q1.85 -34.15 1.45 -34.25L0.7 -34.55Q0.35 -34.7 0.15 -35Q-0.05 -35.25 0 -35.85L0 -35.95L0.15 -36L11.25 -36L11.4 -35.95L11.4 -35.85Q11.4 -35.25 11.2 -35Q11 -34.7 10.65 -34.55L9.95 -34.3Q9.55 -34.15 9.2 -33.85Q8.8 -33.55 8.55 -32.95Q8.25 -32.4 8.15 -31.35L8.15 -4.45M28.3 -4.85Q28.35 -3.75 28.65 -3.1Q28.9 -2.5 29.3 -2.15Q29.65 -1.85 30.05 -1.7L30.8 -1.45Q31.15 -1.3 31.35 -1Q31.55 -0.7 31.55 -0.1L31.55 -0.05L31.35 0L26.05 0L20.25 0L20.15 -0.05L20.1 -0.15Q20.1 -0.75 20.3 -1Q20.5 -1.3 20.85 -1.45L21.55 -1.7Q21.95 -1.85 22.35 -2.15Q22.7 -2.45 23 -3Q23.25 -3.6 23.35 -4.65L23.35 -16.85L9.95 -16.85Q9.4 -16.85 9.35 -17.15Q9.3 -17.45 9.65 -17.95Q10 -18.4 10.7 -18.95Q11.35 -19.5 12.25 -20Q13.1 -20.5 14.2 -20.8Q15.25 -21.1 16.35 -21.1L18.3 -21.1L19.5 -21.1L20.25 -21.1L20.85 -21.15L21.5 -21.15L22.5 -21.2Q23 -21.25 23.2 -21.5L23.4 -21.95L23.35 -31.5Q23.25 -32.5 22.95 -33.05Q22.65 -33.6 22.3 -33.85Q21.9 -34.15 21.5 -34.25L20.8 -34.55Q20.5 -34.7 20.3 -35Q20.1 -35.3 20.15 -35.95L31.6 -35.9Q31.65 -35.25 31.4 -34.95Q31.2 -34.65 30.85 -34.5L30.05 -34.2Q29.6 -34.05 29.25 -33.7Q28.85 -33.35 28.6 -32.6Q28.3 -31.9 28.3 -30.55L28.3 -4.85" />
</g>
<g id="PathID_6" transform="matrix(0.664063, 0, 0, 0.664063, 239.8, 136.4)" opacity="1">
<path style="fill:#000000;fill-opacity:1" d="M26.05 -2.3Q26.1 -1.9 26.3 -1.7Q26.5 -1.5 26.8 -1.4L27.35 -1.25L27.85 -1.05Q28.1 -0.95 28.3 -0.75Q28.45 -0.55 28.45 -0.1Q28.45 0 28.35 0L21.65 0L21.65 -12.15Q21.65 -15.95 19.5 -18.35Q17.3 -20.75 13.85 -20.75Q10.45 -20.75 8.25 -18.4Q6.05 -16 6.05 -12.35Q6.05 -8.55 8.3 -6.15Q10.55 -3.75 14.05 -3.75Q15.7 -3.75 17.15 -4.3Q17.9 -4.55 18.65 -4.95L20.2 -5.95L20.2 -1.25Q18.65 -0.4 17.05 0L15.35 0.25L13.55 0.35Q11.85 0.35 10.1 -0.15Q8.4 -0.7 7 -1.65Q4.4 -3.45 3 -6.15Q1.6 -8.9 1.6 -12.25Q1.6 -17.7 5.05 -21.25Q8.5 -24.8 13.8 -24.8Q17.35 -24.8 20.25 -23.05Q21.7 -22.2 22.85 -20.9Q23.95 -19.65 24.7 -18.2Q25.05 -17.5 25.3 -16.75Q25.6 -16 25.75 -15.2Q26.05 -13.5 26.05 -10.25L26.05 -2.3M10.35 -35.85Q11.15 -36.15 11.95 -36Q12.6 -35.85 13.4 -35.3Q14.15 -34.75 14.75 -33.4L16.95 -27.95Q16.2 -27.5 15.4 -27.7Q15.05 -27.75 14.65 -27.95L13.9 -28.6Q13.45 -29.05 13.05 -29.7Q12.6 -30.35 12.2 -31.3L12.05 -31.65L11.8 -32.25L11.5 -33L11.2 -33.8L10.35 -35.85" />
</g>
<g id="PathID_7" transform="matrix(0.650543, 0.133314, -0.133314, 0.650543, 277.7, 137.75)" opacity="1">
<path style="fill:#000000;fill-opacity:1" d="M23.6 -0.75L23.7 -0.4L23.6 -0.15L23.35 -0.05L23.15 -0.05L22.9 -0.05L22.3 -0.05L21.45 -0.05L20.55 -0.05L18.05 -0.05L14.7 -0.15Q12.95 -0.25 11.35 -0.55Q9.75 -0.8 8.45 -1.3Q7.1 -1.8 6.3 -2.6Q3.1 -5.75 3.1 -12.2L3.1 -31Q3.05 -32.15 2.75 -32.75Q2.5 -33.4 2.15 -33.7Q1.8 -34.05 1.4 -34.15L0.65 -34.45Q0.35 -34.6 0.15 -34.9Q-0.05 -35.2 -0.05 -35.8L0 -35.9L0.15 -35.95L10.95 -35.95L11.1 -35.85L11.1 -35.75Q11.1 -35.15 10.9 -34.9Q10.7 -34.6 10.4 -34.45L9.7 -34.2Q9.3 -34.05 8.95 -33.75Q8.6 -33.45 8.3 -32.85Q8.05 -32.25 7.95 -31.2L7.95 -11.4Q7.95 -7.8 9.85 -5.9Q10.15 -5.55 10.8 -5.35Q11.45 -5.1 12.2 -4.95L13.85 -4.7L15.4 -4.6L16.6 -4.5L17.2 -4.5Q18.85 -4.3 20 -3.85Q21.1 -3.4 21.85 -2.85Q22.6 -2.3 23 -1.75Q23.4 -1.2 23.6 -0.75" />
</g>
<g id="PathID_8" transform="matrix(0.650543, 0.133314, -0.133314, 0.650543, 292.65, 140.8)" opacity="1">
<path style="fill:#000000;fill-opacity:1" d="M1.6 -12.2Q1.6 -14.7 2.55 -17.05Q3.5 -19.3 5.3 -21.15Q7.05 -22.95 9.25 -23.9Q11.45 -24.8 13.95 -24.8Q16.5 -24.8 18.65 -23.9Q20.95 -22.95 22.65 -21.15Q24.4 -19.35 25.35 -17.05Q26.25 -14.8 26.25 -12.2Q26.25 -9.6 25.35 -7.3Q24.4 -4.95 22.65 -3.2Q20.95 -1.45 18.65 -0.5Q16.4 0.45 13.95 0.45Q11.5 0.45 9.25 -0.5Q7.05 -1.4 5.3 -3.2Q3.5 -5.05 2.55 -7.35Q1.6 -9.65 1.6 -12.2M6.15 -12.25Q6.15 -8.75 8.45 -6.25Q10.75 -3.75 13.95 -3.75Q17.15 -3.75 19.45 -6.25Q21.75 -8.7 21.75 -12.25Q21.75 -15.75 19.45 -18.25Q17.15 -20.7 13.95 -20.7Q10.75 -20.7 8.45 -18.25Q6.15 -15.75 6.15 -12.25" />
</g>
<g id="PathID_9" transform="matrix(0.650543, 0.133314, -0.133314, 0.650543, 310.7, 144.55)" opacity="1">
<path style="fill:#000000;fill-opacity:1" d="M-0.3 0Q-0.35 -0.6 -0.15 -0.85Q0.05 -1.1 0.35 -1.25L1.05 -1.55Q1.4 -1.65 1.75 -1.95Q2.05 -2.3 2.3 -2.9Q2.55 -3.55 2.6 -4.7L2.6 -13.25Q2.6 -18.55 5.45 -21.7Q8.25 -24.8 13 -24.8Q17.7 -24.8 20.5 -21.7Q23.3 -18.6 23.3 -13.25L23.3 -4.6Q23.35 -3.5 23.6 -2.9Q23.85 -2.3 24.2 -1.95Q24.5 -1.65 24.9 -1.55L25.6 -1.25Q25.9 -1.1 26.05 -0.85Q26.25 -0.55 26.2 0L21.75 0L16.1 0Q16.05 -0.55 16.25 -0.85Q16.45 -1.1 16.75 -1.25L17.4 -1.5Q17.75 -1.65 18.1 -1.95Q18.45 -2.25 18.7 -2.8Q18.9 -3.4 19 -4.45L19 -14.05Q19 -16.95 17.3 -18.75Q15.6 -20.55 13 -20.55Q10.35 -20.55 8.65 -18.75Q6.95 -16.9 6.95 -14.05L6.95 -4.15Q7.05 -3.2 7.3 -2.65Q7.55 -2.15 7.9 -1.85Q8.2 -1.6 8.55 -1.5L9.2 -1.25Q9.5 -1.1 9.65 -0.8Q9.8 -0.55 9.8 0L-0.3 0" />
</g>
<g id="PathID_10" transform="matrix(0.650543, 0.133314, -0.133314, 0.650543, 327.75, 148)" opacity="1">
<path style="fill:#000000;fill-opacity:1" d="M25.8 -1.15Q25.8 4.9 22.5 8.4Q20.85 10.15 18.7 11.15Q16.55 12.15 13.7 12.15L12.75 12.15L11.3 12.15L9.65 12.15L8.1 12.15L6.9 12.1Q6.4 12.05 6.35 11.95Q6.5 10.55 6.9 9.7Q7.3 8.85 7.9 8.4Q8.5 7.9 9.3 7.75Q10.1 7.55 11 7.5Q11.9 7.4 12.9 7.4Q13.9 7.35 14.9 7.15Q15.9 6.95 16.95 6.55Q17.95 6.1 18.9 5.25Q19.95 4.15 20.7 2.7Q21.45 1.2 21.45 -0.7L21.45 -12.1Q21.45 -16 19.35 -18.4Q17.2 -20.85 13.8 -20.85Q10.45 -20.85 8.3 -18.45Q6.15 -16.05 6.45 -12.25Q6.5 -11.35 6.85 -10.5Q7.15 -9.7 7.6 -9Q8.05 -8.35 8.6 -7.75Q9.15 -7.2 9.75 -6.8Q10.55 -6.2 11.9 -5.9Q13.2 -5.6 14.6 -5.45L17.3 -5.3L19.25 -5.25L19.05 -0.65Q18.8 -0.5 17.85 -0.4Q16.9 -0.35 15.5 -0.45Q14.1 -0.55 12.45 -0.85Q10.8 -1.2 9.15 -1.85Q7.5 -2.5 6.05 -3.55Q4.55 -4.55 3.6 -6.1Q2.75 -7.4 2.25 -8.9Q1.75 -10.45 1.75 -12.15Q1.75 -17.7 5.15 -21.35Q8.55 -25 13.75 -25Q17.2 -25 20.05 -23.2Q22.9 -21.45 24.45 -18.25Q25.2 -16.8 25.5 -15.15Q25.8 -13.45 25.8 -10.15L25.8 -1.15" />
</g>
<g id="PathID_11" transform="matrix(2.83897, 0, 0, 1.71451, 240.45, 225.4)" opacity="1">
<path style="fill:#DA0111;fill-opacity:1" d="M36 -36.1Q51 -21.1 51 0Q51 21.1 36 36Q21.1 51 0 51Q-21.1 51 -36.1 36Q-51 21.1 -51 0Q-51 -21.1 -36.1 -36.1Q-21.1 -51 0 -51Q21.1 -51 36 -36.1" />
</g>
<g id="PathID_12" transform="matrix(0.577036, 0.101747, -0.101747, 0.577036, 170.1, 330.85)" opacity="1">
<path style="fill:#000000;fill-opacity:1" d="M1.85 0L1.85 -5.75L1.9 -5.85Q2.4 -5.8 2.6 -5.55L2.85 -4.95Q2.9 -4.65 3.05 -4.4Q3.2 -4.1 3.7 -4.05L11.5 -4.05L13.4 -4.1Q14.25 -4.15 14.8 -4.5Q15.35 -4.9 15.6 -5.25Q15.8 -5.55 15.8 -6.2Q15.85 -6.8 15.6 -7.2Q15.35 -7.65 14.95 -8.05Q14.75 -8.3 14.3 -8.5L13.35 -9L12.15 -9.5L10.95 -10.05L6.65 -12.15Q4.25 -13.3 3.1 -14.8Q1.95 -16.25 1.95 -18.2Q1.95 -20.95 4.05 -22.5Q5.15 -23.3 6.55 -23.75Q7.95 -24.15 9.8 -24.15L19.2 -24.25L19.2 -23.9L19.05 -23.2Q18.9 -22.8 18.55 -22.35Q18.25 -21.85 17.6 -21.45Q16.95 -21.05 15.95 -20.75Q14.9 -20.45 13.4 -20.4L9.55 -20.35Q8.05 -20.35 7.2 -19.6Q6.75 -19.25 6.6 -19Q6.45 -18.7 6.45 -18.15Q6.45 -17.6 6.55 -17.3L7.05 -16.65L7.55 -16.3L8.25 -16L9.2 -15.6L10.45 -15.05L13.75 -13.8Q15 -13.2 16.15 -12.5Q17.35 -11.85 18.15 -11.3Q18.7 -10.9 19.15 -10.25Q19.55 -9.6 19.85 -8.9Q20.15 -8.2 20.3 -7.5Q20.45 -6.8 20.45 -6.3Q20.45 -4.75 19.8 -3.65Q19.1 -2.55 17.95 -1.65Q17.4 -1.25 16.5 -0.9L14.45 -0.35Q13.35 -0.15 12.2 -0.05L10 0L4.4 0L1.85 0" />
</g>
<g id="PathID_13" transform="matrix(0.577036, 0.101747, -0.101747, 0.577036, 182.9, 333.1)" opacity="1">
<path style="fill:#000000;fill-opacity:1" d="M20.9 -34.7L15.95 -28.6Q14.95 -27.35 14.05 -26.8Q13.15 -26.25 12.4 -26.1Q11.6 -25.9 10.85 -26.1L14.6 -32.4Q15.05 -33.1 15.55 -33.55Q16 -34 16.55 -34.25Q17.05 -34.55 17.6 -34.7L18.6 -34.9Q19.75 -35 20.9 -34.7M26.3 -1.7Q26.5 -1.5 26.8 -1.4L27.35 -1.25L27.85 -1.05Q28.1 -0.95 28.3 -0.75Q28.45 -0.55 28.45 -0.1Q28.45 0 28.35 0L21.65 0L21.65 -12.15Q21.65 -15.95 19.5 -18.35Q17.3 -20.75 13.85 -20.75Q10.45 -20.75 8.25 -18.4Q6.05 -16 6.05 -12.35Q6.05 -8.55 8.3 -6.15Q10.55 -3.75 14.05 -3.75Q15.7 -3.75 17.15 -4.3Q17.9 -4.55 18.65 -4.95L20.2 -5.95L20.2 -1.25Q18.65 -0.4 17.05 0L15.35 0.25L13.55 0.35Q11.85 0.35 10.1 -0.15Q8.4 -0.7 7 -1.65Q4.4 -3.45 3 -6.15Q1.6 -8.9 1.6 -12.25Q1.6 -17.7 5.05 -21.25Q8.5 -24.8 13.8 -24.8Q17.35 -24.8 20.25 -23.05Q21.7 -22.2 22.85 -20.9Q23.95 -19.65 24.7 -18.2Q25.05 -17.5 25.3 -16.75Q25.6 -16 25.75 -15.2Q26.05 -13.5 26.05 -10.25L26.05 -2.3Q26.1 -1.9 26.3 -1.7" />
</g>
<g id="PathID_14" transform="matrix(0.585938, 0, 0, 0.585938, 209.85, 337.15)" opacity="1">
<path style="fill:#000000;fill-opacity:1" d="M1.85 0L1.85 -5.75L1.9 -5.85Q2.4 -5.8 2.6 -5.55L2.85 -4.95Q2.9 -4.65 3.05 -4.4Q3.2 -4.1 3.7 -4.05L11.5 -4.05L13.4 -4.1Q14.25 -4.15 14.8 -4.5Q15.35 -4.9 15.6 -5.25Q15.8 -5.55 15.8 -6.2Q15.85 -6.8 15.6 -7.2Q15.35 -7.65 14.95 -8.05Q14.75 -8.3 14.3 -8.5L13.35 -9L12.15 -9.5L10.95 -10.05L6.65 -12.15Q4.25 -13.3 3.1 -14.8Q1.95 -16.25 1.95 -18.2Q1.95 -20.95 4.05 -22.5Q5.15 -23.3 6.55 -23.75Q7.95 -24.15 9.8 -24.15L19.2 -24.25L19.2 -23.9L19.05 -23.2Q18.9 -22.8 18.55 -22.35Q18.25 -21.85 17.6 -21.45Q16.95 -21.05 15.95 -20.75Q14.9 -20.45 13.4 -20.4L9.55 -20.35Q8.05 -20.35 7.2 -19.6Q6.75 -19.25 6.6 -19Q6.45 -18.7 6.45 -18.15Q6.45 -17.6 6.55 -17.3L7.05 -16.65L7.55 -16.3L8.25 -16L9.2 -15.6L10.45 -15.05L13.75 -13.8Q15 -13.2 16.15 -12.5Q17.35 -11.85 18.15 -11.3Q18.7 -10.9 19.15 -10.25Q19.55 -9.6 19.85 -8.9Q20.15 -8.2 20.3 -7.5Q20.45 -6.8 20.45 -6.3Q20.45 -4.75 19.8 -3.65Q19.1 -2.55 17.95 -1.65Q17.4 -1.25 16.5 -0.9L14.45 -0.35Q13.35 -0.15 12.2 -0.05L10 0L4.4 0L1.85 0" />
</g>
<g id="PathID_15" transform="matrix(0.585938, 0, 0, 0.585938, 222.85, 337.15)" opacity="1">
<path style="fill:#000000;fill-opacity:1" d="M23.4 -11.05Q23.4 -7.3 21.95 -4.65L21.95 -4.6Q21.4 -3.55 20.6 -2.65Q17.75 0.45 13.05 0.45Q8.35 0.45 5.5 -2.65L5.45 -2.65L4.7 -3.55Q4.35 -4.05 4.1 -4.6Q2.65 -7.25 2.65 -11.05L2.65 -24.4Q3.85 -24.45 4.85 -23.85Q5.25 -23.6 5.65 -23.15Q6 -22.75 6.35 -22.1Q6.65 -21.45 6.8 -20.6Q7 -19.7 7 -18.5L7 -10.25Q7 -7.35 8.7 -5.6Q10.4 -3.75 13.05 -3.75Q15.7 -3.75 17.35 -5.6Q17.65 -5.85 17.85 -6.15L18.2 -6.75Q19.05 -8.3 19.05 -10.25L19.1 -10.25L19.1 -18.5Q19.1 -19.7 19.25 -20.6Q19.45 -21.45 19.75 -22.1Q20.05 -22.75 20.45 -23.15Q20.8 -23.6 21.25 -23.85Q22.2 -24.45 23.4 -24.4L23.4 -11.05M9.05 -35.85Q9.85 -36.15 10.65 -36Q11.35 -35.85 12.1 -35.3Q12.85 -34.75 13.5 -33.4L15.65 -27.95Q14.9 -27.5 14.1 -27.7Q13.75 -27.75 13.4 -27.95Q13 -28.2 12.6 -28.6L11.75 -29.7Q11.35 -30.35 10.95 -31.3L10.8 -31.65L10.55 -32.25L10.25 -33L9.9 -33.8L9.05 -35.85" />
</g>
<g id="PathID_16" transform="matrix(0.585938, 0, 0, 0.585938, 238.2, 337.15)" opacity="1">
<path style="fill:#000000;fill-opacity:1" d="M-0.3 0Q-0.35 -0.6 -0.15 -0.85Q0.05 -1.1 0.35 -1.25L1.05 -1.55Q1.4 -1.65 1.75 -1.95Q2.05 -2.3 2.3 -2.9Q2.55 -3.55 2.6 -4.7L2.6 -13.25Q2.6 -18.55 5.45 -21.7Q8.25 -24.8 13 -24.8Q17.7 -24.8 20.5 -21.7Q23.3 -18.6 23.3 -13.25L23.3 -4.6Q23.35 -3.5 23.6 -2.9Q23.85 -2.3 24.2 -1.95Q24.5 -1.65 24.9 -1.55L25.6 -1.25Q25.9 -1.1 26.05 -0.85Q26.25 -0.55 26.2 0L21.75 0L16.1 0Q16.05 -0.55 16.25 -0.85Q16.45 -1.1 16.75 -1.25L17.4 -1.5Q17.75 -1.65 18.1 -1.95Q18.45 -2.25 18.7 -2.8Q18.9 -3.4 19 -4.45L19 -14.05Q19 -16.95 17.3 -18.75Q15.6 -20.55 13 -20.55Q10.35 -20.55 8.65 -18.75Q6.95 -16.9 6.95 -14.05L6.95 -4.15Q7.05 -3.2 7.3 -2.65Q7.55 -2.15 7.9 -1.85Q8.2 -1.6 8.55 -1.5L9.2 -1.25Q9.5 -1.1 9.65 -0.8Q9.8 -0.55 9.8 0L-0.3 0" />
</g>
<g id="PathID_17" transform="matrix(0.585938, 0, 0, 0.585938, 253.55, 337.15)" opacity="1">
<path style="fill:#000000;fill-opacity:1" d="M25.8 -1.15Q25.8 4.9 22.5 8.4Q20.85 10.15 18.7 11.15Q16.55 12.15 13.7 12.15L12.75 12.15L11.3 12.15L9.65 12.15L8.1 12.15L6.9 12.1Q6.4 12.05 6.35 11.95Q6.5 10.55 6.9 9.7Q7.3 8.85 7.9 8.4Q8.5 7.9 9.3 7.75Q10.1 7.55 11 7.5Q11.9 7.4 12.9 7.4Q13.9 7.35 14.9 7.15Q15.9 6.95 16.95 6.55Q17.95 6.1 18.9 5.25Q19.95 4.15 20.7 2.7Q21.45 1.2 21.45 -0.7L21.45 -12.1Q21.45 -16 19.35 -18.4Q17.2 -20.85 13.8 -20.85Q10.45 -20.85 8.3 -18.45Q6.15 -16.05 6.45 -12.25Q6.5 -11.35 6.85 -10.5Q7.15 -9.7 7.6 -9Q8.05 -8.35 8.6 -7.75Q9.15 -7.2 9.75 -6.8Q10.55 -6.2 11.9 -5.9Q13.2 -5.6 14.6 -5.45L17.3 -5.3L19.25 -5.25L19.05 -0.65Q18.8 -0.5 17.85 -0.4Q16.9 -0.35 15.5 -0.45Q14.1 -0.55 12.45 -0.85Q10.8 -1.2 9.15 -1.85Q7.5 -2.5 6.05 -3.55Q4.55 -4.55 3.6 -6.1Q2.75 -7.4 2.25 -8.9Q1.75 -10.45 1.75 -12.15Q1.75 -17.7 5.15 -21.35Q8.55 -25 13.75 -25Q17.2 -25 20.05 -23.2Q22.9 -21.45 24.45 -18.25Q25.2 -16.8 25.5 -15.15Q25.8 -13.45 25.8 -10.15L25.8 -1.15" />
</g>
<g id="PathID_18" transform="matrix(0.577036, -0.101747, 0.101747, 0.577036, 279.95, 339.3)" opacity="1">
<path style="fill:#000000;fill-opacity:1" d="M19.45 -22.75Q18.95 -22.15 18.55 -21.5L17.85 -20.2Q17.5 -19.5 17.4 -18.75Q17.15 -19.05 16.7 -19.35Q16.25 -19.7 15.7 -19.95Q15.1 -20.25 14.4 -20.4Q13.7 -20.6 13.05 -20.6Q10.4 -20.6 8.7 -18.75Q7 -16.95 7 -14.05L7 -4.15Q7.1 -3.2 7.35 -2.65Q7.6 -2.15 7.95 -1.9L8.65 -1.5L9.3 -1.25Q9.55 -1.1 9.75 -0.85Q9.9 -0.55 9.85 0L-0.2 0Q-0.25 -0.6 -0.05 -0.85Q0.1 -1.15 0.4 -1.25L1.1 -1.55Q1.5 -1.65 1.8 -2Q2.15 -2.3 2.4 -2.95Q2.6 -3.55 2.65 -4.7L2.65 -13.25Q2.65 -18.55 5.5 -21.7Q8.35 -24.8 13.05 -24.8Q16.85 -24.8 19.45 -22.75M20.45 -21.7Q23.05 -24.8 27.4 -24.8Q31.7 -24.8 34.3 -21.7Q36.95 -18.55 36.95 -13.25L36.95 -4.7Q36.95 -3.55 37.2 -2.95Q37.4 -2.3 37.7 -2Q38 -1.65 38.35 -1.55L39 -1.25Q39.3 -1.15 39.45 -0.85Q39.65 -0.6 39.6 0L30.3 0Q30.25 -0.55 30.45 -0.85Q30.6 -1.1 30.85 -1.25L31.45 -1.5L32.05 -1.9Q32.35 -2.15 32.6 -2.65Q32.85 -3.2 32.9 -4.15L32.9 -14.05Q32.9 -17 31.35 -18.75Q29.85 -20.6 27.4 -20.6Q24.95 -20.6 23.4 -18.75Q21.85 -17 21.85 -14.05L21.85 -5.3Q21.85 -3.75 21.4 -2.55Q21.25 -2 20.95 -1.5Q20.65 -1.05 20.25 -0.65Q19.8 -0.25 19.25 0Q18.65 0.2 17.9 0.2L17.9 -13.25Q17.9 -18.6 20.45 -21.7" />
</g>
<g id="PathID_19" transform="matrix(0.577036, -0.101747, 0.101747, 0.577036, 302.9, 335.25)" opacity="1">
<path style="fill:#000000;fill-opacity:1" d="M20.7 -3.35Q18.2 -1.15 15.85 -0.25Q13.55 0.6 10.9 0.6Q6.55 0.6 4.2 -1.5Q1.85 -3.65 1.85 -7Q1.85 -8.95 2.7 -10.55Q3.6 -12.15 5.05 -13.1Q6.5 -14.1 8.3 -14.6Q9.6 -14.95 12.3 -15.3Q17.75 -15.95 20.3 -16.85L20.35 -18Q20.35 -20.75 19.05 -21.85Q17.35 -23.4 13.95 -23.4Q10.75 -23.4 9.25 -22.25Q7.75 -21.15 7.05 -18.35L2.65 -18.95Q3.25 -21.75 4.6 -23.5Q6 -25.25 8.6 -26.2Q11.2 -27.15 14.6 -27.15Q18 -27.15 20.1 -26.3Q22.25 -25.5 23.25 -24.3Q24.25 -23.1 24.65 -21.25Q24.9 -20.1 24.9 -17.1L24.9 -11.1Q24.9 -4.85 25.15 -3.15Q25.45 -1.5 26.3 0L21.6 0Q20.9 -1.4 20.7 -3.35M20.3 -13.3Q17.85 -12.3 12.95 -11.6Q10.15 -11.2 9 -10.7Q7.85 -10.2 7.25 -9.2Q6.65 -8.25 6.65 -7.1Q6.65 -5.3 8 -4.1Q9.35 -2.95 12 -2.95Q14.6 -2.95 16.6 -4.05Q18.65 -5.2 19.6 -7.15Q20.3 -8.65 20.3 -11.65L20.3 -13.3M19 -36.35L22.1 -36.35Q21.7 -33.2 19.8 -31.5Q17.9 -29.85 14.7 -29.85Q11.5 -29.85 9.55 -31.5Q7.65 -33.15 7.3 -36.35L10.4 -36.35Q10.7 -34.6 11.75 -33.75Q12.8 -32.95 14.55 -32.95Q16.55 -32.95 17.6 -33.75Q18.65 -34.55 19 -36.35M14.9 -45.7L20.95 -45.7L15.15 -38.7L11.5 -38.7L14.9 -45.7" />
</g>
<g id="PathID_20" transform="matrix(0.577036, -0.101747, 0.101747, 0.577036, 319.3, 332.35)" opacity="1">
<path style="fill:#000000;fill-opacity:1" d="M19.45 -22.75Q18.95 -22.15 18.55 -21.5L17.85 -20.2Q17.5 -19.5 17.4 -18.75Q17.15 -19.05 16.7 -19.35Q16.25 -19.7 15.7 -19.95Q15.1 -20.25 14.4 -20.4Q13.7 -20.6 13.05 -20.6Q10.4 -20.6 8.7 -18.75Q7 -16.95 7 -14.05L7 -4.15Q7.1 -3.2 7.35 -2.65Q7.6 -2.15 7.95 -1.9L8.65 -1.5L9.3 -1.25Q9.55 -1.1 9.75 -0.85Q9.9 -0.55 9.85 0L-0.2 0Q-0.25 -0.6 -0.05 -0.85Q0.1 -1.15 0.4 -1.25L1.1 -1.55Q1.5 -1.65 1.8 -2Q2.15 -2.3 2.4 -2.95Q2.6 -3.55 2.65 -4.7L2.65 -13.25Q2.65 -18.55 5.5 -21.7Q8.35 -24.8 13.05 -24.8Q16.85 -24.8 19.45 -22.75M20.45 -21.7Q23.05 -24.8 27.4 -24.8Q31.7 -24.8 34.3 -21.7Q36.95 -18.55 36.95 -13.25L36.95 -4.7Q36.95 -3.55 37.2 -2.95Q37.4 -2.3 37.7 -2Q38 -1.65 38.35 -1.55L39 -1.25Q39.3 -1.15 39.45 -0.85Q39.65 -0.6 39.6 0L30.3 0Q30.25 -0.55 30.45 -0.85Q30.6 -1.1 30.85 -1.25L31.45 -1.5L32.05 -1.9Q32.35 -2.15 32.6 -2.65Q32.85 -3.2 32.9 -4.15L32.9 -14.05Q32.9 -17 31.35 -18.75Q29.85 -20.6 27.4 -20.6Q24.95 -20.6 23.4 -18.75Q21.85 -17 21.85 -14.05L21.85 -5.3Q21.85 -3.75 21.4 -2.55Q21.25 -2 20.95 -1.5Q20.65 -1.05 20.25 -0.65Q19.8 -0.25 19.25 0Q18.65 0.2 17.9 0.2L17.9 -13.25Q17.9 -18.6 20.45 -21.7" />
</g>
<g id="PathID_21" transform="matrix(-0.123626, 0.826181, 0.826181, 0.123626, 60.85, 156.45)" opacity="1">
<path style="fill:#94281C;fill-opacity:1" d="M122.85 20.55L123.75 21.15L124.1 21.15L124.35 21.45L125.05 21.85L125.4 22.2L126.7 22.95L127.2 23.1L128.4 23.7L130.05 24.9L130.2 25.1L130.8 25.4L130.95 25.65L131.45 25.95L131.7 26.4L132.55 27.1L132.75 27.45L132.9 27.6L133.45 28L135.6 30.3L135.85 30.7L136.2 30.9L136.5 31.45L137.65 33L137.8 33.5L138.3 34.05L138.45 34.4L139 34.95L139.35 35.85L139.6 35.95L139.9 36.75L140.25 37L141.15 38.8L141.35 39.45L141.75 39.9L143.1 43.3L143.1 43.45L143.2 43.45L143.35 43.65L143.35 43.75L146.9 64.3L147.15 64.95L148.2 68.55L148.5 68.8L148.9 70.35L149.1 70.6L150 71L150 71.35L149.25 71.35L148.65 71L147.6 69.85L147.45 69.45L147.15 68.95L146.9 68.65L146.4 67.7L146.05 67.4L145.65 66.5L145.35 66.25L142.95 63.4L141.75 62.5L141.4 62.35L141.15 62.1L140.5 61.75L139.9 61.25L139.8 61L139.5 60.7L139.2 60.55L137.4 58.05L137.25 57.5L137 57.25L136.5 56.35L135.6 53.7L135.25 53.35L135.2 52.95L134.05 51.7L133.15 51L132.75 50.4L132.5 50.15L132 50.1L130.35 49L130.05 48.7L129.9 48.7L128.8 47.8L128.5 47.35L127.35 46.15L127.2 45.9L126.7 45.55L126.05 44.35L125.55 43.95L124.65 42.3L123.6 35.85L123.45 35.55L122.7 33.15L122.35 32.65L121.95 31.35L120.6 29.8L118.55 28.65L117.9 28.5L116.1 27.75L109.95 27.1L106.2 27.3L102.45 28L100.15 28.85L100.05 28.85L94.5 31.05L94.2 31.35L92.85 31.95L92.25 32.1L92 32.35L91.25 32.65L90.8 33L79.65 38.2L79.1 38.7L78.9 38.7L73.95 41.25L73.05 41.5L72.7 41.7L72.45 42L73.65 42.4L73.95 42.75L73.95 43.95L73.2 45L72.95 45.25L72.65 45.75L71.25 47.25L70.9 47.35L70.85 47.7L70.25 48.1L70.1 48.45L69 49.5L68.1 49.9L67.8 50.15L65.1 51.4L64.8 51.4L63.8 51.9L62.1 52.2L59.4 52L51.95 50.15L48.45 50.15L47.3 50.4L46.65 51.3L45.9 51.9L44.05 52.95L43.05 53.2L42.8 53.35L42.55 53.35L41.6 53.85L41.45 53.85L41.1 54L40.7 54L40.1 54.25L28.35 56.6L15.2 57.5L14.85 57.45L13.9 57.45L10.4 56.8L8.35 56.2L4.85 54.25L4.65 54.25L4.4 54L4.1 53.85L3.5 53.35L3.35 53.1L2.45 52.6L2.15 52L2 52L1.7 51.9L1.1 51.3L0.9 50.8L0 49.25L0 48.7L0.35 47.8L1.7 45.9L1.7 45.75L2 45.75L2.15 45.55L2.15 45.25L3.2 44.1L3.5 43.95L3.7 43.65L4.4 43.05L4.4 42.9L6.65 40.8L6.95 40.6L9.3 38.1L9.8 37.75L9.8 37.65L10.2 37.35L10.4 37.15L10.7 36.6L10.7 35.55L11.6 33.9L11.95 33.55L12.65 33L16.25 31.05L17.15 30.3L17.25 30L17.5 29.8L17.55 29.8L20.1 27.6L21.2 27.1L21.3 26.85L24.2 25.4L24.95 25.1L25.4 24.6L25.65 24.6L25.85 24.25L26.55 23.85L27.2 23.3L27.45 23.3L29.6 22.05L30.15 21.55L30.65 21.45L31.4 21L31.85 20.85L32.1 20.55L33.85 19.85L33.9 19.65L38.9 17.8L39.8 18.15L39.95 18.3L40.3 18.95L40.3 19.35L40.55 19.35L40.7 19.2L41.6 18.95L41.9 18.95L42 19.2L42.3 19.35L42.5 19.35L42.8 19.05L43.05 18.95L43.45 18.45L45 18.05L45.6 18.05L48.6 16.8L49.25 16.9L49.55 17.15L50.75 16.5L52.55 16.25L53.25 16.25L55.1 15.75L55.4 15.6L55.65 15.6L56.45 15.9L56.55 15.75L56.7 15.35L57 15L57.35 15L57.9 14.7L70.5 13.1L70.65 13.1L70.65 13.2L70.85 13.4L73.55 12.9L73.95 12.9L74.1 13.1L74.1 13.2L76.45 12.65L77.6 12.65L77.7 12.75L77.7 12.9L78.2 12.9L78.6 12.65L80.4 12.3L80.85 12.3L82 11.85L83.4 11.6L83.8 11.65L85.05 10.95L85.55 10.75L85.95 10.5L86.6 10.2L86.75 9.85L87.15 9.8L88.8 8.75L91.8 7.35L92.25 6.95L92.7 6.75L93.6 6.1L94 6.05L94.5 5.55L97.7 3.5L97.8 3.35L98.35 3L98.6 2.7L100.05 1.55L100.4 1.4L101.3 0.8L102.3 0.3L103.5 0L103.9 0L104.25 0.3L104.55 0.3L104.7 0.5L105.1 1.55L105.3 2.45L105.3 2.7L104.55 5.55L103.35 8.25L102.8 9.15L102.6 10.35L102.6 10.5L102.3 10.75L102.2 12.75L102.3 13.2L102.8 13.55L103.2 13.55L103.8 13.65L104.1 13.95L106.85 14.3L107.1 14.45L107.5 14.55L107.75 14.85L108 15L108.65 15.1L109.3 15.1L110.35 15.75L111.45 16L112.35 16L114.3 16.5L116.75 17.55L117.65 17.8L117.9 18.15L122.3 20.4L122.55 20.4L122.85 20.55" />
</g>
<g id="PathID_22" transform="matrix(2.43671, 0, 0, 1.47158, 240.6, 225.3)" opacity="1">
<path style="fill:#FEF392;fill-opacity:1" d="M36 -36.1Q51 -21.1 51 0Q51 21.1 36 36Q21.1 51 0 51Q-21.1 51 -36.1 36Q-51 21.1 -51 0Q-51 -21.1 -36.1 -36.1Q-21.1 -51 0 -51Q21.1 -51 36 -36.1" />
</g>
<g id="PathID_23" transform="matrix(1.27613, 0, 0, 0.960089, 143.05, 173.05)" opacity="1">
<path style="fill:#EA1515;fill-opacity:1" d="M142.85 1.75Q141.8 4.25 142.2 6.5Q142.45 8.2 143.9 10.9Q144.45 12 147.15 16.1Q148.75 18.6 148.9 20.1Q149.4 24.95 147.85 29.05Q146.45 32.85 143.65 35Q140.7 37.35 135.8 37.1L134.8 37.05L134.75 37.05L134.35 37L130.25 36.1L127.7 35.05L124.7 33.25L124.1 33Q126.2 34.7 127.45 37.5L129.75 44.05Q131.1 47.9 133.05 49.75Q135.7 52.3 140.75 52.7Q141.3 52.7 141.25 53.05Q141.2 53.4 140.65 53.35Q135.4 53 132.45 50.65Q130.25 48.9 128.75 45.3L126.25 38.95Q124.5 35.25 121.7 33.2L121.45 33Q120.8 33.6 121.7 34.8L122.6 35.5L123.35 36.2Q124.65 38.75 123.9 40.65Q123.55 41.55 122.05 43.05Q120.55 44.6 120.2 45.5Q119.3 47.8 120.45 49.75Q121.95 52.5 127.4 55Q129.5 55.95 129.95 56.85L127.7 56.95Q122.1 55.3 120.05 53.65Q117 51.15 117.25 46.3L116.6 47.1Q116.3 47.05 116.6 46.1Q115.6 45.75 115 44.4L114.9 44.15L114.8 44.05L114.7 43.65Q114.25 42.25 114.3 40.55L114.3 40.45L114.3 39.75Q114.45 37.95 115.2 36.45Q116.15 34.55 117.8 34.1Q113.05 34.9 111.85 33.6Q109.3 30.75 110.25 27.35Q110.75 25.4 112.3 24.15Q113.75 22.9 115.45 22.75Q116.65 22.7 117.1 23.85Q117.5 24.9 117.15 25.95L116.6 26.5Q116.25 26.8 116.45 26.95L117.35 27.1L118.25 26.6Q118.8 26.1 118.3 24.65L117.55 23.45L117.05 22.25Q117 21.95 117.25 21.6L117.65 21L118.1 19.9Q118.35 19.35 118.8 19.4Q119.3 19.4 119.55 20.3Q119.85 21.4 120.2 21.6L121.75 22.15Q122.8 22.4 123.15 22.75Q123.45 23.15 123.55 24.25Q123.6 25.3 124 25.6L125.7 25.75L127.35 25.95L128.55 27.15L129.65 28.15Q130.3 28.7 130.95 28.9L131.5 28.85L130.4 27.8L127.9 25L127.7 24.75L127.4 24.85L126.85 24.95L126.25 24.9L124.85 24.45Q124.2 24.05 123.85 23.45L123.75 23.35L123.6 22.2L123.65 21.75L123.4 21.75L123.05 21.85Q121.7 21.95 120.3 20.45L119.9 19.85L119.95 19.8Q119.05 18.65 118.9 17.05Q118.8 15.75 119.45 14.75Q120.15 13.75 121.25 13.45Q122.65 13.15 123.4 13.7Q124.05 14.25 123.7 14.65L122.95 14.8L121.85 15.05Q121 15.5 120.85 15.95Q120.8 16.35 121.2 17.15Q121.75 18.15 122.4 18.1L127.55 17.4Q130.45 17.1 131.45 18.4Q132.2 19.45 131.75 21Q131.25 22.55 131.85 23.35L133.15 24.6L134.5 25.9Q134.8 26.25 135.1 27.65Q135.3 28.75 135.95 29Q138.6 30 140.85 29.65Q143.45 29.3 144.5 27Q146 23.75 144.6 21.45Q143.15 19.05 139.95 20.15Q139.5 20.35 139.9 20.7L140.7 21.25Q141.9 22.1 140.55 22.55L138.4 22.7Q136.15 22.1 136.25 20.7Q136.35 19.55 138 18.3L137.9 18.2L137.85 18.2L136.75 18.2Q136.1 18.1 136 17.8Q135.8 16.75 135.85 15.05Q135.9 14.75 136.85 14.7L138.55 14.6L140.5 14.4Q141.7 14.2 141.5 13.6L140 8.35Q139.55 5.5 140.6 3.3Q141.6 1.35 142.45 1.05Q143.3 0.7 142.85 1.75M103.65 4.7Q103.25 5.5 102.45 5.75L101.2 5.7Q100.45 5.4 100.05 4.7L99.85 3.75Q99.85 3.1 100.2 3Q101.05 2.75 101.3 3.35Q101.6 3.95 100.95 4Q100.95 4.55 101.35 4.7L102.1 4.65Q103.1 4.25 102.95 3.2Q102.9 2.2 101.95 1.55L99.25 1.65Q98.1 2.65 98.35 4.1Q98.5 4.85 99.75 6.3Q100.55 7.25 102.1 7.55L105.2 7.7L107.7 7.7Q112.1 7.55 115.1 9.9Q118.25 12.4 118.1 16.45L117.75 18.75L116.8 20.85L116.1 21.65Q115.6 21.95 115.95 21.05L116.75 18.5L116.95 16.45Q116.95 12.9 114.15 11Q111.6 9.3 107.7 9.4L106.2 9.4L103.05 9.35Q101.3 9.15 100 8.35Q97.55 6.9 97.25 4.4Q97.05 3.3 97.3 2.35Q97.7 0.85 99.4 0.25Q101.1 -0.35 102.3 0.55Q103.6 1.5 103.9 3.1Q104 4 103.65 4.7M105.65 12.75L105.6 12.75L100.75 12.9L92.3 12.3L91.6 12.1Q88.55 11.05 88.9 7.95Q89.25 4.85 92.5 4.8Q93.95 4.8 94.8 5.6Q95.55 6.3 95.8 7.3Q96.1 8.75 95.05 9.55Q93.45 10.7 92.2 9.1Q91 7.5 92.15 6.85L93.25 6.9Q93.55 7.15 93.45 7.5L92.85 7.85Q92.55 8.35 93 8.85Q93.5 9.25 94.05 9.1L94.7 8.55L94.7 7.55Q94.6 6.9 94.05 6.45Q93.3 5.7 92.45 5.8Q90.05 6 90.1 8.05Q90.15 10.1 92.05 10.7L96.35 11.3L100.7 11.1L105.65 10.95Q109.7 11.05 112.1 15.15Q112.35 15.65 112.05 15.8Q111.75 15.95 111.5 15.5Q110.75 14.2 108.9 13.45Q107.35 12.8 105.65 12.75M96.4 64.85Q95.25 63.4 93.1 62.8Q88.4 61.4 83.55 62.4Q78.35 63.5 74.85 67Q72.6 69.25 72.05 73.9L71.9 75.2L71.85 76.2L71.75 77.3L71.8 77.3L71.75 78.4L71.7 78.4L71.6 81.95Q71.55 82.65 72.4 83.85L72.95 84.85L73 84.85L73.2 85.7L73.2 85.8L73.2 85.95Q73.2 86.8 74.2 89.15Q75 91 74.4 90.6Q72.35 89.35 71 86.85L70.75 86.45L70.35 85.5L69.95 84.5L69.9 84.25Q69.15 81.95 68.9 79.1L68.9 78.75L68.9 78.4L68.85 77.65L68.85 76.85L68.9 75.55Q69.1 73.15 69.75 70.95Q71.1 66.35 75.65 63.15Q80 60.1 85.4 59.55Q90 59.05 93.6 60.5Q97.9 62.2 99.05 66.25Q99.8 69 98.7 70.85Q97.5 72.95 94.25 72.75Q92.85 72.65 91.85 71.85Q91.6 71.65 91.65 71.25Q91.8 70.85 92.1 70.95L95.8 71.15Q97.55 70.55 97.55 67.75Q97.55 66.15 96.4 64.85M88.85 92.5L89.55 92.2L90.25 91.8L90.3 91.8L91.85 90.85L94.9 88.5Q95.9 87.65 96.6 88.65Q97.15 89.4 97.3 90.85Q97.4 91.45 96.85 92.25L95.7 93.55L95.55 93.75L94.85 94.5L93.55 95.9Q92.8 96.5 92.2 96.45Q90.45 96.1 88.25 93.8Q87.55 93.1 87.8 92.9L88.9 92.55L88.85 92.5M84.95 97.05L85 97.1L85.7 97.7L87.05 98.7Q89.15 100.3 91.65 101.65Q80.3 102.85 71.45 98.55Q61.15 93.6 59.55 83.1Q59.15 80.75 59.4 76.85L59.6 74.35L59.7 73.2L59.8 70.45Q60 62.85 55.85 59.3L55.2 58.6L55.05 57.55Q54.8 55.25 53.15 52.85L49.95 48.9Q47.95 46.45 47.25 44.35Q45.6 39.1 45.8 34.2Q46.1 29.45 48.1 26.05Q50.05 22.75 53.8 21.4Q57.9 19.9 61 22.25Q63.5 24.15 63.35 28.15Q63.25 32.35 59.8 32.85Q58.05 33.1 57 31.95Q56 30.85 56.15 29.35Q56.2 28.15 57 27.6Q57.9 26.9 59.45 27.35Q60.1 27.5 59.95 28.05Q59.8 28.55 59.1 28.65Q58 28.8 57.95 29.8Q57.9 30.75 58.95 30.9Q60.85 31.2 61.6 29.75Q62.25 28.45 61.7 26.6Q61.1 24.75 59.6 23.85Q57.9 22.8 55.7 23.8Q54.15 24.5 52.85 26L51.1 28.65Q48.4 33.1 49.85 38.85Q51.05 43.45 55.25 49.95L55.75 50.1L55.9 50.15L56.85 50.45L57.5 50.65L57.5 50.7Q60.6 51.9 62.6 54.15Q65.15 56.9 66.3 61.85Q67.1 65.4 67.3 70.55L67.3 81.2Q67.35 83.85 68.4 86.1L68.45 86.1L69.3 87.55L69.3 87.6L71.45 89.95Q74.3 92.3 78 93.05L78 93L79.45 93.25L81.35 93.35L84.95 97.05M117.8 90.5L116.8 93.75L116.8 93.85L117.1 93.55L117.85 92.7Q118.25 92.2 118.15 91.6Q118.1 91.05 117.8 90.5L117.85 90.4L117.5 89.45Q117.8 89.95 117.8 90.5M108 31.05L108 31.1L107.8 31.4Q106.7 33.05 106.95 34L107.1 36.45Q107.05 38.15 107.25 39Q109.85 49.45 115.7 55.55Q118.45 58.45 119.5 62.55Q120.25 65.6 120.15 70.6L120.15 72.35Q120.05 72.5 119 71.65Q117.35 70.35 115.1 70.05L111.1 70.35Q106.65 71.95 108.15 76.7Q108.7 78.5 110.55 79.1Q112.45 79.8 113.7 78.25L114.1 77.2Q114.25 76.4 113.85 76.25L113 76.4L112.1 76.6Q111.15 76.3 110.85 75.2Q110.5 74.15 111.2 73.6Q112.7 72.5 114.8 73.05Q116.75 73.5 118.1 74.95Q119.1 76 119.2 78.95L119.1 83.3L118.35 88.6L119.1 90.6Q120.5 87.45 120.85 83.6Q121.2 79.15 119.95 76.05Q118.65 72.95 115.15 71.75Q111.4 70.55 109.95 73.95Q109.2 75.9 111.3 76.75Q111.8 76.9 111.7 77.4Q111.6 77.85 111.05 77.7Q109.3 77 108.85 75.65Q108.5 74.45 109.2 73.1Q111.3 69.25 115.6 70.5Q119.6 71.7 121.15 75.6Q122.35 78.6 122.25 82.5Q122.1 86.15 120.85 89.45Q120.25 91.1 119 92.8L116.65 95.75Q116.45 96.1 116.05 95.95L115.95 96.05Q115.55 97.1 115.25 96.65L114.6 95Q113.75 92.95 112.05 91.9Q110.35 90.85 108.25 90.9Q105.8 90.95 104.65 91.9Q104.1 92.3 102.45 94.65Q100.75 97.1 101.4 97.2Q102.05 97.3 103.75 95.3Q104.9 93.9 106.9 93.1Q109.15 92.2 110.7 92.8Q112.9 93.75 113.4 96.85Q113.55 97.55 112.25 98.2Q110.75 98.95 110.55 99.5Q110.25 100.15 111.85 100.65L118.95 103.25Q123.15 104.45 125.9 103.15Q127.9 102.2 129.3 99.95Q129 99.85 129.3 99.3Q129.6 98.8 130 98.7L130.1 98.5L130.7 97.1Q130.45 96.55 131.1 95.8L132 92.05L131.55 91.35Q131.2 91.05 131.4 90.9L130.9 90.55Q130.15 90.5 129.45 89.95Q128.8 89.4 128.6 88.75L128.55 88.7L128.55 88.6Q127.9 86.4 128.1 84.25Q128.25 81.95 129.2 80.1Q130.5 77.55 133 76.2Q135.7 74.7 139.45 74.85Q146.6 75.15 148.95 79.1Q149.8 80.55 149.95 82.05Q150.05 83.5 149.4 84.8Q148.9 85.85 147.4 86.3Q145.45 86.85 145.55 86.15Q145.65 85.5 147.1 84.7Q148.1 84.15 148.45 83.25Q148.85 82.15 148.05 81.15Q146.35 79.1 143.55 78.55L138.55 78.75Q135.6 79.45 133.25 82.3Q132.75 82.95 132.55 83.95Q132.4 84.9 132.7 85.7L132.75 85.8L133.7 86Q134.5 86 134.5 86.3L134.5 86.35L134.55 86.35L134.65 86.45Q134.85 86.7 134.7 87.45Q134.5 88.2 134.75 88.5L134.8 88.5L135.15 88.75L136 88.75L136.5 88.65L136.5 88.6L136.5 88.4L136.5 88.35Q136.7 87.65 137.75 86.8Q139.2 85.65 140.7 85.95Q143.3 86.5 144.2 88.4Q145 90.1 144 91.9Q143.8 92.3 142.95 92.4Q142.1 92.5 142.3 92.15Q142.9 91.25 142.25 90.35Q141.55 89.3 140.15 89.75Q139.1 90.05 138.4 91.25Q137.7 92.45 137.95 93.55L138.1 93.95L138.75 94.55Q139.05 95.05 138.75 95.3L138.7 95.3L139.15 96.2L139.4 96.85L139.45 96.9Q139.9 97.4 139.9 98.2Q139.95 99 139.6 99.65L139.55 99.7Q138.4 103.75 135.45 106.1L134.25 105.95L134.2 105.95Q134 106.15 133.5 105.75L132.85 105.25L132.8 105.2L132 105.25L131.85 105.45Q131.75 105.8 132.05 106.95Q132.3 107.85 131.85 108.2Q131.25 108.7 129.6 108.65L129.55 108.65L128.75 108.8L128.05 108.8L127.3 109.1Q125.6 110.4 126.35 111.55Q126.95 112.5 128.55 112.9Q129.6 113.2 128.95 113.5L127.65 113.7Q125.15 113.6 124.8 111.8L124.8 110.45L125 109.1L124.85 108.3L124.3 107.7Q119.65 105.75 113.6 105.85L108.1 106.45L102.65 106.95Q99.6 106.85 99.85 104.8L100.1 103.1Q100.15 102.15 99.5 101.7Q98.8 101.2 95.65 101.2Q92.5 101.25 91.85 100.75L88.2 97.8L84.9 94.65Q80.55 89.65 80.7 84.55Q80.8 80.25 83.25 77Q84.85 74.85 87.35 73.9L92.05 73.7Q95.2 74.95 95.35 78.05Q95.5 81.2 92.1 82.1Q90.35 82.6 89.7 81.75Q89.15 81 89.35 79.1Q89.4 78.75 89.95 78.6Q90.5 78.45 90.6 78.75Q90.95 79.55 91.65 79.85Q92.5 80.25 93 79.55Q94.05 78.15 92.85 76.9Q91.6 75.65 89.35 76.1Q85.45 76.85 83.95 79.75Q82.7 82.1 83 85.85Q83.2 89.6 84.7 91.95Q85.85 93.75 87.95 95.45Q90.25 97.35 91.95 97.7Q93.05 97.9 94.15 97.1L95.85 95.35L96.65 94.45L98.05 92.75Q98.7 91.75 98.6 90.75Q98.5 89.8 97.4 88Q96.65 86.85 97.55 85.85Q102.1 81.05 103.45 75.3Q105.6 66.4 103.15 57.5L99.1 45.4Q96.75 38.1 97.35 33.05Q98.4 23.2 104.1 18.8Q106 17.35 109.15 16.45Q112.85 15.45 114.7 16.45Q115.6 17 115.75 18.55Q115.95 20.2 115.2 21.25Q114.95 21.65 112.7 22.65Q110.65 23.55 109.9 25.15Q109.4 26.25 109.15 27.3L109 28.8L109 29L108.95 29.15L108.65 30L108.65 30.05L108 31.05M37.9 41.8L37.85 41.8L38.5 42.75L39.1 43.6L40.65 45.25L40.8 45.4L41.2 45.75L41.35 45.9L41.8 46.25L42.15 46.55L42.7 47L44.85 48.65Q45.1 48.9 44.7 49.45L44.1 50.45L44.2 50.95Q44.35 51.25 44.55 51.15Q49.6 47.55 53.2 54.7L53.9 56.45L54.1 57.7L53.3 57.8Q49.35 56.8 45.45 60.3Q43.05 62.5 41.4 66.6Q39.4 71.65 42.85 72.55L45.3 72.3L47.65 72.5Q49.25 73.8 49.8 75.9Q50.3 77.85 49.9 80.15Q49.6 81.95 47.5 83.05Q45.45 84.15 45.5 82.95Q45.6 81.55 45.35 80.6Q45.1 79.75 44.6 79.7L43.55 79.65L42.55 79.95Q42.05 80.65 42.35 82.3Q42.65 84 43.5 84.35L45.85 84.7Q47.3 84.6 48.55 84.1Q49.6 83.65 50.3 82.95L51.1 81.85L51.45 81.2L51.4 81.2L51.75 79.9L51.8 79.9L51.9 78.6Q52 76.7 51.05 74.85L51 74.8L50.6 73.95L50.45 73.75L50 73.15L49.95 73.1L48.65 71.8L46.45 70.95Q44.6 70.25 44.75 69.7Q45.35 67.55 48.9 68.45Q51.85 69.25 53.75 72.15L54.35 73.3L54.7 74.1L54.9 74.5L56.25 78.6Q57.75 84.35 56.05 89.3L56 89.5L55.35 91.05L55.4 91.05L54.65 92.6L54.6 92.5L53.65 93.95L53.65 94.15L52.45 95.75L52.45 95.45Q47.9 100.75 39.75 103.25Q40.45 105.65 40.25 107.35L44.55 111.05Q47.1 113.05 49.25 114L51.8 113.9L54.45 113.4Q55.2 113.45 56.65 114.7Q58 115.8 58.85 115.6Q60.8 115.2 62.4 114Q64.2 112.75 64.8 111.05L65 110.55L64.95 110.55L65.1 109.7L65.1 109.65L65.1 109.35L65.1 109.05L65.05 108.4L64.95 107.85L64.95 107.65L64.95 107.6L64.85 107.1L64.85 106.95L64.8 105.85L64.95 105.15Q65.5 103.75 66.85 102.6Q68.15 101.5 69.85 100.95Q72.2 100.2 74.55 101.2Q76.7 102.1 78.2 104.05Q79.7 105.9 79.8 107.7Q79.95 109.7 78.35 110.6L76.8 110.7Q76.1 110.3 77.25 109.5Q79.65 107.9 76.6 105.35Q73.55 102.85 71.45 103.5Q70.35 103.9 70.05 105.7L69.95 106.1Q69.9 106.3 70.15 106.8L70.2 106.85L70.25 107L70.5 107.4L70.55 107.5L70.9 108.1L70.85 108.1L70.9 108.15L71.1 108.8L71.05 109.25L71.05 109.3L70.75 109.95L70.4 110.4Q70.05 110.85 70.1 111.2L73.2 111.15Q75.1 111.7 75.95 114.25Q76.75 116.6 76.1 118.5Q75.75 119.6 74.5 120.35Q73.3 121.05 72.05 121.1Q70.65 121.2 70.9 120.55Q71.2 119.95 72.35 119.95Q73.3 119.9 73.85 119.25Q74.3 118.65 74.4 117.65Q74.5 116.1 73.45 115.55Q72.25 114.85 71.45 115.55L71.2 115.75L70.9 116.1L70.5 116.45L70.55 116.5L69.9 117.05L69.65 117.25L69.4 117.35L68.7 117.65L68.35 117.8Q68.4 119.4 67.65 120.3L66.75 120.6L65.75 120.85Q65.55 121 65.45 121.65Q65.35 122.2 65 122.15L62.15 121.5L59.2 121.75L58.3 121.95L57.2 122L56.6 121.9Q55.6 121.7 54.55 121.15Q53.15 120.3 52.2 120.15Q50.75 119.85 49.5 120.65Q48.15 121.4 47.9 122.4Q47.7 123.35 48.65 123.85Q48.95 124 48.6 124.25L47.95 124.45Q46.4 124.15 46.65 122.35Q46.95 120.05 50.65 116.85Q50.95 116.6 50.25 116.45Q49.6 116.3 49.25 116.45Q45.8 117.9 44.35 122.65L43.75 124.05Q43.45 124.35 43.3 122.65Q43 119.1 43.55 117.7Q44.25 116 47.05 114.6L42.95 111.45Q40.5 109.55 38.65 108.6L37.6 108.8L36.5 109.1Q34.6 108.5 31.5 106.3L30.5 105.55Q30 105.05 30 104.6Q30.05 103.9 30.7 103.1L31.8 101.75Q26.1 100.7 23.55 98.9Q19.15 95.9 16.35 88.25L19.65 88.2Q19.9 89.85 21.15 91.6Q23.95 95.3 27.85 97.1Q32.1 99 36.35 97.95Q40.9 96.85 44.1 91.8Q38.15 90.7 35.75 88Q34.75 86.85 34.25 85.35L34.1 84.8L34.1 84.75L34.05 84.65L34.05 84.5L33.95 84.1Q33.65 82.4 33.9 80.25L34.4 79.25L34.45 79.1L34.95 78.6Q35.8 77.95 36.85 77.75Q37.75 77.5 38.25 78.35L38.75 79.35Q39 79.7 39.65 79.15Q40.6 78.35 38.55 77.1Q37.15 76.2 35.5 76.9Q34.1 77.5 32.05 79.4L29.05 82.65L26 85.4L25.75 85.55L25.55 85.65L23.85 86.5Q19.45 88.05 15.55 87.1Q11.85 86.2 8.25 83L6.95 81.8Q4 78.9 2.35 75.8Q1 73.15 0.5 70.4Q-1 62.15 1.85 54.15Q4.95 45.3 11.9 41.55Q14.85 39.95 18 40.15Q20.95 40.3 23.1 42Q25.2 43.75 25.6 46.45Q26 49.35 24.1 52.65Q22.9 54.7 19.85 55.1Q16.9 55.55 16.2 53.15Q15.75 51.7 16.2 48.45Q16.4 47.15 17.1 47.15Q17.8 47.2 17.8 47.9L17.45 49.85Q17.35 51.1 18.1 51.65Q19.1 52.3 19.8 52.25Q21.95 52.1 22.85 50.55Q23.65 49.15 23.2 47.3Q22.75 45.45 21.3 44.35Q19.65 43.1 17.55 43.5Q15.2 43.9 12.5 45.95Q9.95 47.85 8 50.45Q5.3 54.15 4.9 59.9Q4.7 63.5 5.4 67.2L5.75 68.8L6.05 69.95L6.85 72.25L7.5 73.55Q8.8 75.85 10.7 77.15L10.8 77.2L10.95 77.25L11.1 77.35L12.05 77.9L13.4 78.55L16 78.95Q15.4 69.4 19.05 62.55Q21.25 58.45 24.3 56.05Q27.05 53.9 29.4 53.9Q31.75 53.9 32.55 55.9Q33.35 57.9 31.55 59.25Q30.95 59.7 30.45 59.8L29.15 59.8Q28.55 59.7 28.4 58.9Q28.25 58.05 29.4 58.3Q29.9 58.45 30.8 57.6Q32.6 55.95 30.1 55.9Q27.65 55.85 26.3 56.95Q23.7 59 20.5 63.95Q18.7 66.85 18.45 71.3Q18.3 73.85 18.45 78.75Q18.45 79 17.95 79.05Q17.35 79.05 17.25 79.2Q17.1 79.35 17.2 79.6L17.4 79.9L20.8 79.25L21.4 79.05L22.95 78.35L22.95 78.3L23.9 77.8Q26.15 76.5 27.55 74.4L28.7 72.25Q31.55 65.4 34.75 60.35Q38.85 53.9 42.5 52.25L40.45 50.95L39.5 50.3L38.95 49.85Q36.6 47.95 35.3 45.85Q34.6 44.75 34.2 43.65L34.15 43.5L33.9 42.7Q33 39.15 33.1 35.9Q33.25 32.25 34.65 29.7Q36.35 26.65 39.05 25.45Q41.75 24.2 43.9 25.55Q45.75 26.75 45.8 28.45Q45.85 30.3 43.25 30.55Q42.55 30.65 42.1 30.2Q41.65 29.8 41.6 29.15L41.65 28.6L41.95 27.95Q42.25 27.55 42.6 27.75L42.7 28.15L42.8 28.55L43.45 28.5L43.9 28.15Q44.1 27.3 43.1 26.8Q42.25 26.3 41.4 26.35Q39.6 26.35 37.8 28.4Q35.3 31.2 35.95 35.95Q36.3 38.6 37.35 40.8L37.35 40.85L37.9 41.8" />
</g>
<g id="PathID_24" transform="matrix(0.123626, 0.826181, -0.826181, 0.123626, 419.4, 155.65)" opacity="1">
<path style="fill:#94281C;fill-opacity:1" d="M122.85 20.55L123.75 21.15L124.1 21.15L124.35 21.45L125.05 21.85L125.4 22.2L126.7 22.95L127.2 23.1L128.4 23.7L130.05 24.9L130.2 25.1L130.8 25.4L130.95 25.65L131.45 25.95L131.7 26.4L132.55 27.1L132.75 27.45L132.9 27.6L133.45 28L135.6 30.3L135.85 30.7L136.2 30.9L136.5 31.45L137.65 33L137.8 33.5L138.3 34.05L138.45 34.4L139 34.95L139.35 35.85L139.6 35.95L139.9 36.75L140.25 37L141.15 38.8L141.35 39.45L141.75 39.9L143.1 43.3L143.1 43.45L143.2 43.45L143.35 43.65L143.35 43.75L146.9 64.3L147.15 64.95L148.2 68.55L148.5 68.8L148.9 70.35L149.1 70.6L150 71L150 71.35L149.25 71.35L148.65 71L147.6 69.85L147.45 69.45L147.15 68.95L146.9 68.65L146.4 67.7L146.05 67.4L145.65 66.5L145.35 66.25L142.95 63.4L141.75 62.5L141.4 62.35L141.15 62.1L140.5 61.75L139.9 61.25L139.8 61L139.5 60.7L139.2 60.55L137.4 58.05L137.25 57.5L137 57.25L136.5 56.35L135.6 53.7L135.25 53.35L135.2 52.95L134.05 51.7L133.15 51L132.75 50.4L132.5 50.15L132 50.1L130.35 49L130.05 48.7L129.9 48.7L128.8 47.8L128.5 47.35L127.35 46.15L127.2 45.9L126.7 45.55L126.05 44.35L125.55 43.95L124.65 42.3L123.6 35.85L123.45 35.55L122.7 33.15L122.35 32.65L121.95 31.35L120.6 29.8L118.55 28.65L117.9 28.5L116.1 27.75L109.95 27.1L106.2 27.3L102.45 28L100.15 28.85L100.05 28.85L94.5 31.05L94.2 31.35L92.85 31.95L92.25 32.1L92 32.35L91.25 32.65L90.8 33L79.65 38.2L79.1 38.7L78.9 38.7L73.95 41.25L73.05 41.5L72.7 41.7L72.45 42L73.65 42.4L73.95 42.75L73.95 43.95L73.2 45L72.95 45.25L72.65 45.75L71.25 47.25L70.9 47.35L70.85 47.7L70.25 48.1L70.1 48.45L69 49.5L68.1 49.9L67.8 50.15L65.1 51.4L64.8 51.4L63.8 51.9L62.1 52.2L59.4 52L51.95 50.15L48.45 50.15L47.3 50.4L46.65 51.3L45.9 51.9L44.05 52.95L43.05 53.2L42.8 53.35L42.55 53.35L41.6 53.85L41.45 53.85L41.1 54L40.7 54L40.1 54.25L28.35 56.6L15.2 57.5L14.85 57.45L13.9 57.45L10.4 56.8L8.35 56.2L4.85 54.25L4.65 54.25L4.4 54L4.1 53.85L3.5 53.35L3.35 53.1L2.45 52.6L2.15 52L2 52L1.7 51.9L1.1 51.3L0.9 50.8L0 49.25L0 48.7L0.35 47.8L1.7 45.9L1.7 45.75L2 45.75L2.15 45.55L2.15 45.25L3.2 44.1L3.5 43.95L3.7 43.65L4.4 43.05L4.4 42.9L6.65 40.8L6.95 40.6L9.3 38.1L9.8 37.75L9.8 37.65L10.2 37.35L10.4 37.15L10.7 36.6L10.7 35.55L11.6 33.9L11.95 33.55L12.65 33L16.25 31.05L17.15 30.3L17.25 30L17.5 29.8L17.55 29.8L20.1 27.6L21.2 27.1L21.3 26.85L24.2 25.4L24.95 25.1L25.4 24.6L25.65 24.6L25.85 24.25L26.55 23.85L27.2 23.3L27.45 23.3L29.6 22.05L30.15 21.55L30.65 21.45L31.4 21L31.85 20.85L32.1 20.55L33.85 19.85L33.9 19.65L38.9 17.8L39.8 18.15L39.95 18.3L40.3 18.95L40.3 19.35L40.55 19.35L40.7 19.2L41.6 18.95L41.9 18.95L42 19.2L42.3 19.35L42.5 19.35L42.8 19.05L43.05 18.95L43.45 18.45L45 18.05L45.6 18.05L48.6 16.8L49.25 16.9L49.55 17.15L50.75 16.5L52.55 16.25L53.25 16.25L55.1 15.75L55.4 15.6L55.65 15.6L56.45 15.9L56.55 15.75L56.7 15.35L57 15L57.35 15L57.9 14.7L70.5 13.1L70.65 13.1L70.65 13.2L70.85 13.4L73.55 12.9L73.95 12.9L74.1 13.1L74.1 13.2L76.45 12.65L77.6 12.65L77.7 12.75L77.7 12.9L78.2 12.9L78.6 12.65L80.4 12.3L80.85 12.3L82 11.85L83.4 11.6L83.8 11.65L85.05 10.95L85.55 10.75L85.95 10.5L86.6 10.2L86.75 9.85L87.15 9.8L88.8 8.75L91.8 7.35L92.25 6.95L92.7 6.75L93.6 6.1L94 6.05L94.5 5.55L97.7 3.5L97.8 3.35L98.35 3L98.6 2.7L100.05 1.55L100.4 1.4L101.3 0.8L102.3 0.3L103.5 0L103.9 0L104.25 0.3L104.55 0.3L104.7 0.5L105.1 1.55L105.3 2.45L105.3 2.7L104.55 5.55L103.35 8.25L102.8 9.15L102.6 10.35L102.6 10.5L102.3 10.75L102.2 12.75L102.3 13.2L102.8 13.55L103.2 13.55L103.8 13.65L104.1 13.95L106.85 14.3L107.1 14.45L107.5 14.55L107.75 14.85L108 15L108.65 15.1L109.3 15.1L110.35 15.75L111.45 16L112.35 16L114.3 16.5L116.75 17.55L117.65 17.8L117.9 18.15L122.3 20.4L122.55 20.4L122.85 20.55" />
</g>
</svg>
