<?xml version="1.0" encoding="utf-8"?>
<svg version="1.1" id="Layer_1"
xmlns="http://www.w3.org/2000/svg"
xmlns:xlink="http://www.w3.org/1999/xlink"
width="550px" height="400px"
xml:space="preserve">
<g id="PathID_25" transform="matrix(2.83897, 0, 0, 1.71451, 240.45, 225.4)" opacity="1">
<path style="fill:#DA0111;fill-opacity:1" d="M36 -36.1Q51 -21.1 51 0Q51 21.1 36 36Q21.1 51 0 51Q-21.1 51 -36.1 36Q-51 21.1 -51 0Q-51 -21.1 -36.1 -36.1Q-21.1 -51 0 -51Q21.1 -51 36 -36.1" />
</g>
<g id="PathID_26" transform="matrix(2.43671, 0, 0, 1.47158, 240.6, 225.3)" opacity="1">
<path style="fill:#FEF392;fill-opacity:1" d="M36 -36.1Q51 -21.1 51 0Q51 21.1 36 36Q21.1 51 0 51Q-21.1 51 -36.1 36Q-51 21.1 -51 0Q-51 -21.1 -36.1 -36.1Q-21.1 -51 0 -51Q21.1 -51 36 -36.1" />
</g>
<g id="PathID_27" transform="matrix(1.27613, 0, 0, 0.960089, 143.05, 173.05)" opacity="1">
<path style="fill:#EA1515;fill-opacity:1" d="M142.85 1.75Q141.8 4.25 142.2 6.5Q142.45 8.2 143.9 10.9Q144.45 12 147.15 16.1Q148.75 18.6 148.9 20.1Q149.4 24.95 147.85 29.05Q146.45 32.85 143.65 35Q140.7 37.35 135.8 37.1L134.8 37.05L134.75 37.05L134.35 37L130.25 36.1L127.7 35.05L124.7 33.25L124.1 33Q126.2 34.7 127.45 37.5L129.75 44.05Q131.1 47.9 133.05 49.75Q135.7 52.3 140.75 52.7Q141.3 52.7 141.25 53.05Q141.2 53.4 140.65 53.35Q135.4 53 132.45 50.65Q130.25 48.9 128.75 45.3L126.25 38.95Q124.5 35.25 121.7 33.2L121.45 33Q120.8 33.6 121.7 34.8L122.6 35.5L123.35 36.2Q124.65 38.75 123.9 40.65Q123.55 41.55 122.05 43.05Q120.55 44.6 120.2 45.5Q119.3 47.8 120.45 49.75Q121.95 52.5 127.4 55Q129.5 55.95 129.95 56.85L127.7 56.95Q122.1 55.3 120.05 53.65Q117 51.15 117.25 46.3L116.6 47.1Q116.3 47.05 116.6 46.1Q115.6 45.75 115 44.4L114.9 44.15L114.8 44.05L114.7 43.65Q114.25 42.25 114.3 40.55L114.3 40.45L114.3 39.75Q114.45 37.95 115.2 36.45Q116.15 34.55 117.8 34.1Q113.05 34.9 111.85 33.6Q109.3 30.75 110.25 27.35Q110.75 25.4 112.3 24.15Q113.75 22.9 115.45 22.75Q116.65 22.7 117.1 23.85Q117.5 24.9 117.15 25.95L116.6 26.5Q116.25 26.8 116.45 26.95L117.35 27.1L118.25 26.6Q118.8 26.1 118.3 24.65L117.55 23.45L117.05 22.25Q117 21.95 117.25 21.6L117.65 21L118.1 19.9Q118.35 19.35 118.8 19.4Q119.3 19.4 119.55 20.3Q119.85 21.4 120.2 21.6L121.75 22.15Q122.8 22.4 123.15 22.75Q123.45 23.15 123.55 24.25Q123.6 25.3 124 25.6L125.7 25.75L127.35 25.95L128.55 27.15L129.65 28.15Q130.3 28.7 130.95 28.9L131.5 28.85L130.4 27.8L127.9 25L127.7 24.75L127.4 24.85L126.85 24.95L126.25 24.9L124.85 24.45Q124.2 24.05 123.85 23.45L123.75 23.35L123.6 22.2L123.65 21.75L123.4 21.75L123.05 21.85Q121.7 21.95 120.3 20.45L119.9 19.85L119.95 19.8Q119.05 18.65 118.9 17.05Q118.8 15.75 119.45 14.75Q120.15 13.75 121.25 13.45Q122.65 13.15 123.4 13.7Q124.05 14.25 123.7 14.65L122.95 14.8L121.85 15.05Q121 15.5 120.85 15.95Q120.8 16.35 121.2 17.15Q121.75 18.15 122.4 18.1L127.55 17.4Q130.45 17.1 131.45 18.4Q132.2 19.45 131.75 21Q131.25 22.55 131.85 23.35L133.15 24.6L134.5 25.9Q134.8 26.25 135.1 27.65Q135.3 28.75 135.95 29Q138.6 30 140.85 29.65Q143.45 29.3 144.5 27Q146 23.75 144.6 21.45Q143.15 19.05 139.95 20.15Q139.5 20.35 139.9 20.7L140.7 21.25Q141.9 22.1 140.55 22.55L138.4 22.7Q136.15 22.1 136.25 20.7Q136.35 19.55 138 18.3L137.9 18.2L137.85 18.2L136.75 18.2Q136.1 18.1 136 17.8Q135.8 16.75 135.85 15.05Q135.9 14.75 136.85 14.7L138.55 14.6L140.5 14.4Q141.7 14.2 141.5 13.6L140 8.35Q139.55 5.5 140.6 3.3Q141.6 1.35 142.45 1.05Q143.3 0.7 142.85 1.75M103.65 4.7Q103.25 5.5 102.45 5.75L101.2 5.7Q100.45 5.4 100.05 4.7L99.85 3.75Q99.85 3.1 100.2 3Q101.05 2.75 101.3 3.35Q101.6 3.95 100.95 4Q100.95 4.55 101.35 4.7L102.1 4.65Q103.1 4.25 102.95 3.2Q102.9 2.2 101.95 1.55L99.25 1.65Q98.1 2.65 98.35 4.1Q98.5 4.85 99.75 6.3Q100.55 7.25 102.1 7.55L105.2 7.7L107.7 7.7Q112.1 7.55 115.1 9.9Q118.25 12.4 118.1 16.45L117.75 18.75L116.8 20.85L116.1 21.65Q115.6 21.95 115.95 21.05L116.75 18.5L116.95 16.45Q116.95 12.9 114.15 11Q111.6 9.3 107.7 9.4L106.2 9.4L103.05 9.35Q101.3 9.15 100 8.35Q97.55 6.9 97.25 4.4Q97.05 3.3 97.3 2.35Q97.7 0.85 99.4 0.25Q101.1 -0.35 102.3 0.55Q103.6 1.5 103.9 3.1Q104 4 103.65 4.7M105.65 12.75L105.6 12.75L100.75 12.9L92.3 12.3L91.6 12.1Q88.55 11.05 88.9 7.95Q89.25 4.85 92.5 4.8Q93.95 4.8 94.8 5.6Q95.55 6.3 95.8 7.3Q96.1 8.75 95.05 9.55Q93.45 10.7 92.2 9.1Q91 7.5 92.15 6.85L93.25 6.9Q93.55 7.15 93.45 7.5L92.85 7.85Q92.55 8.35 93 8.85Q93.5 9.25 94.05 9.1L94.7 8.55L94.7 7.55Q94.6 6.9 94.05 6.45Q93.3 5.7 92.45 5.8Q90.05 6 90.1 8.05Q90.15 10.1 92.05 10.7L96.35 11.3L100.7 11.1L105.65 10.95Q109.7 11.05 112.1 15.15Q112.35 15.65 112.05 15.8Q111.75 15.95 111.5 15.5Q110.75 14.2 108.9 13.45Q107.35 12.8 105.65 12.75M96.4 64.85Q95.25 63.4 93.1 62.8Q88.4 61.4 83.55 62.4Q78.35 63.5 74.85 67Q72.6 69.25 72.05 73.9L71.9 75.2L71.85 76.2L71.75 77.3L71.8 77.3L71.75 78.4L71.7 78.4L71.6 81.95Q71.55 82.65 72.4 83.85L72.95 84.85L73 84.85L73.2 85.7L73.2 85.8L73.2 85.95Q73.2 86.8 74.2 89.15Q75 91 74.4 90.6Q72.35 89.35 71 86.85L70.75 86.45L70.35 85.5L69.95 84.5L69.9 84.25Q69.15 81.95 68.9 79.1L68.9 78.75L68.9 78.4L68.85 77.65L68.85 76.85L68.9 75.55Q69.1 73.15 69.75 70.95Q71.1 66.35 75.65 63.15Q80 60.1 85.4 59.55Q90 59.05 93.6 60.5Q97.9 62.2 99.05 66.25Q99.8 69 98.7 70.85Q97.5 72.95 94.25 72.75Q92.85 72.65 91.85 71.85Q91.6 71.65 91.65 71.25Q91.8 70.85 92.1 70.95L95.8 71.15Q97.55 70.55 97.55 67.75Q97.55 66.15 96.4 64.85M88.85 92.5L89.55 92.2L90.25 91.8L90.3 91.8L91.85 90.85L94.9 88.5Q95.9 87.65 96.6 88.65Q97.15 89.4 97.3 90.85Q97.4 91.45 96.85 92.25L95.7 93.55L95.55 93.75L94.85 94.5L93.55 95.9Q92.8 96.5 92.2 96.45Q90.45 96.1 88.25 93.8Q87.55 93.1 87.8 92.9L88.9 92.55L88.85 92.5M84.95 97.05L85 97.1L85.7 97.7L87.05 98.7Q89.15 100.3 91.65 101.65Q80.3 102.85 71.45 98.55Q61.15 93.6 59.55 83.1Q59.15 80.75 59.4 76.85L59.6 74.35L59.7 73.2L59.8 70.45Q60 62.85 55.85 59.3L55.2 58.6L55.05 57.55Q54.8 55.25 53.15 52.85L49.95 48.9Q47.95 46.45 47.25 44.35Q45.6 39.1 45.8 34.2Q46.1 29.45 48.1 26.05Q50.05 22.75 53.8 21.4Q57.9 19.9 61 22.25Q63.5 24.15 63.35 28.15Q63.25 32.35 59.8 32.85Q58.05 33.1 57 31.95Q56 30.85 56.15 29.35Q56.2 28.15 57 27.6Q57.9 26.9 59.45 27.35Q60.1 27.5 59.95 28.05Q59.8 28.55 59.1 28.65Q58 28.8 57.95 29.8Q57.9 30.75 58.95 30.9Q60.85 31.2 61.6 29.75Q62.25 28.45 61.7 26.6Q61.1 24.75 59.6 23.85Q57.9 22.8 55.7 23.8Q54.15 24.5 52.85 26L51.1 28.65Q48.4 33.1 49.85 38.85Q51.05 43.45 55.25 49.95L55.75 50.1L55.9 50.15L56.85 50.45L57.5 50.65L57.5 50.7Q60.6 51.9 62.6 54.15Q65.15 56.9 66.3 61.85Q67.1 65.4 67.3 70.55L67.3 81.2Q67.35 83.85 68.4 86.1L68.45 86.1L69.3 87.55L69.3 87.6L71.45 89.95Q74.3 92.3 78 93.05L78 93L79.45 93.25L81.35 93.35L84.95 97.05M117.8 90.5L116.8 93.75L116.8 93.85L117.1 93.55L117.85 92.7Q118.25 92.2 118.15 91.6Q118.1 91.05 117.8 90.5L117.85 90.4L117.5 89.45Q117.8 89.95 117.8 90.5M108 31.05L108 31.1L107.8 31.4Q106.7 33.05 106.95 34L107.1 36.45Q107.05 38.15 107.25 39Q109.85 49.45 115.7 55.55Q118.45 58.45 119.5 62.55Q120.25 65.6 120.15 70.6L120.15 72.35Q120.05 72.5 119 71.65Q117.35 70.35 115.1 70.05L111.1 70.35Q106.65 71.95 108.15 76.7Q108.7 78.5 110.55 79.1Q112.45 79.8 113.7 78.25L114.1 77.2Q114.25 76.4 113.85 76.25L113 76.4L112.1 76.6Q111.15 76.3 110.85 75.2Q110.5 74.15 111.2 73.6Q112.7 72.5 114.8 73.05Q116.75 73.5 118.1 74.95Q119.1 76 119.2 78.95L119.1 83.3L118.35 88.6L119.1 90.6Q120.5 87.45 120.85 83.6Q121.2 79.15 119.95 76.05Q118.65 72.95 115.15 71.75Q111.4 70.55 109.95 73.95Q109.2 75.9 111.3 76.75Q111.8 76.9 111.7 77.4Q111.6 77.85 111.05 77.7Q109.3 77 108.85 75.65Q108.5 74.45 109.2 73.1Q111.3 69.25 115.6 70.5Q119.6 71.7 121.15 75.6Q122.35 78.6 122.25 82.5Q122.1 86.15 120.85 89.45Q120.25 91.1 119 92.8L116.65 95.75Q116.45 96.1 116.05 95.95L115.95 96.05Q115.55 97.1 115.25 96.65L114.6 95Q113.75 92.95 112.05 91.9Q110.35 90.85 108.25 90.9Q105.8 90.95 104.65 91.9Q104.1 92.3 102.45 94.65Q100.75 97.1 101.4 97.2Q102.05 97.3 103.75 95.3Q104.9 93.9 106.9 93.1Q109.15 92.2 110.7 92.8Q112.9 93.75 113.4 96.85Q113.55 97.55 112.25 98.2Q110.75 98.95 110.55 99.5Q110.25 100.15 111.85 100.65L118.95 103.25Q123.15 104.45 125.9 103.15Q127.9 102.2 129.3 99.95Q129 99.85 129.3 99.3Q129.6 98.8 130 98.7L130.1 98.5L130.7 97.1Q130.45 96.55 131.1 95.8L132 92.05L131.55 91.35Q131.2 91.05 131.4 90.9L130.9 90.55Q130.15 90.5 129.45 89.95Q128.8 89.4 128.6 88.75L128.55 88.7L128.55 88.6Q127.9 86.4 128.1 84.25Q128.25 81.95 129.2 80.1Q130.5 77.55 133 76.2Q135.7 74.7 139.45 74.85Q146.6 75.15 148.95 79.1Q149.8 80.55 149.95 82.05Q150.05 83.5 149.4 84.8Q148.9 85.85 147.4 86.3Q145.45 86.85 145.55 86.15Q145.65 85.5 147.1 84.7Q148.1 84.15 148.45 83.25Q148.85 82.15 148.05 81.15Q146.35 79.1 143.55 78.55L138.55 78.75Q135.6 79.45 133.25 82.3Q132.75 82.95 132.55 83.95Q132.4 84.9 132.7 85.7L132.75 85.8L133.7 86Q134.5 86 134.5 86.3L134.5 86.35L134.55 86.35L134.65 86.45Q134.85 86.7 134.7 87.45Q134.5 88.2 134.75 88.5L134.8 88.5L135.15 88.75L136 88.75L136.5 88.65L136.5 88.6L136.5 88.4L136.5 88.35Q136.7 87.65 137.75 86.8Q139.2 85.65 140.7 85.95Q143.3 86.5 144.2 88.4Q145 90.1 144 91.9Q143.8 92.3 142.95 92.4Q142.1 92.5 142.3 92.15Q142.9 91.25 142.25 90.35Q141.55 89.3 140.15 89.75Q139.1 90.05 138.4 91.25Q137.7 92.45 137.95 93.55L138.1 93.95L138.75 94.55Q139.05 95.05 138.75 95.3L138.7 95.3L139.15 96.2L139.4 96.85L139.45 96.9Q139.9 97.4 139.9 98.2Q139.95 99 139.6 99.65L139.55 99.7Q138.4 103.75 135.45 106.1L134.25 105.95L134.2 105.95Q134 106.15 133.5 105.75L132.85 105.25L132.8 105.2L132 105.25L131.85 105.45Q131.75 105.8 132.05 106.95Q132.3 107.85 131.85 108.2Q131.25 108.7 129.6 108.65L129.55 108.65L128.75 108.8L128.05 108.8L127.3 109.1Q125.6 110.4 126.35 111.55Q126.95 112.5 128.55 112.9Q129.6 113.2 128.95 113.5L127.65 113.7Q125.15 113.6 124.8 111.8L124.8 110.45L125 109.1L124.85 108.3L124.3 107.7Q119.65 105.75 113.6 105.85L108.1 106.45L102.65 106.95Q99.6 106.85 99.85 104.8L100.1 103.1Q100.15 102.15 99.5 101.7Q98.8 101.2 95.65 101.2Q92.5 101.25 91.85 100.75L88.2 97.8L84.9 94.65Q80.55 89.65 80.7 84.55Q80.8 80.25 83.25 77Q84.85 74.85 87.35 73.9L92.05 73.7Q95.2 74.95 95.35 78.05Q95.5 81.2 92.1 82.1Q90.35 82.6 89.7 81.75Q89.15 81 89.35 79.1Q89.4 78.75 89.95 78.6Q90.5 78.45 90.6 78.75Q90.95 79.55 91.65 79.85Q92.5 80.25 93 79.55Q94.05 78.15 92.85 76.9Q91.6 75.65 89.35 76.1Q85.45 76.85 83.95 79.75Q82.7 82.1 83 85.85Q83.2 89.6 84.7 91.95Q85.85 93.75 87.95 95.45Q90.25 97.35 91.95 97.7Q93.05 97.9 94.15 97.1L95.85 95.35L96.65 94.45L98.05 92.75Q98.7 91.75 98.6 90.75Q98.5 89.8 97.4 88Q96.65 86.85 97.55 85.85Q102.1 81.05 103.45 75.3Q105.6 66.4 103.15 57.5L99.1 45.4Q96.75 38.1 97.35 33.05Q98.4 23.2 104.1 18.8Q106 17.35 109.15 16.45Q112.85 15.45 114.7 16.45Q115.6 17 115.75 18.55Q115.95 20.2 115.2 21.25Q114.95 21.65 112.7 22.65Q110.65 23.55 109.9 25.15Q109.4 26.25 109.15 27.3L109 28.8L109 29L108.95 29.15L108.65 30L108.65 30.05L108 31.05M37.9 41.8L37.85 41.8L38.5 42.75L39.1 43.6L40.65 45.25L40.8 45.4L41.2 45.75L41.35 45.9L41.8 46.25L42.15 46.55L42.7 47L44.85 48.65Q45.1 48.9 44.7 49.45L44.1 50.45L44.2 50.95Q44.35 51.25 44.55 51.15Q49.6 47.55 53.2 54.7L53.9 56.45L54.1 57.7L53.3 57.8Q49.35 56.8 45.45 60.3Q43.05 62.5 41.4 66.6Q39.4 71.65 42.85 72.55L45.3 72.3L47.65 72.5Q49.25 73.8 49.8 75.9Q50.3 77.85 49.9 80.15Q49.6 81.95 47.5 83.05Q45.45 84.15 45.5 82.95Q45.6 81.55 45.35 80.6Q45.1 79.75 44.6 79.7L43.55 79.65L42.55 79.95Q42.05 80.65 42.35 82.3Q42.65 84 43.5 84.35L45.85 84.7Q47.3 84.6 48.55 84.1Q49.6 83.65 50.3 82.95L51.1 81.85L51.45 81.2L51.4 81.2L51.75 79.9L51.8 79.9L51.9 78.6Q52 76.7 51.05 74.85L51 74.8L50.6 73.95L50.45 73.75L50 73.15L49.95 73.1L48.65 71.8L46.45 70.95Q44.6 70.25 44.75 69.7Q45.35 67.55 48.9 68.45Q51.85 69.25 53.75 72.15L54.35 73.3L54.7 74.1L54.9 74.5L56.25 78.6Q57.75 84.35 56.05 89.3L56 89.5L55.35 91.05L55.4 91.05L54.65 92.6L54.6 92.5L53.65 93.95L53.65 94.15L52.45 95.75L52.45 95.45Q47.9 100.75 39.75 103.25Q40.45 105.65 40.25 107.35L44.55 111.05Q47.1 113.05 49.25 114L51.8 113.9L54.45 113.4Q55.2 113.45 56.65 114.7Q58 115.8 58.85 115.6Q60.8 115.2 62.4 114Q64.2 112.75 64.8 111.05L65 110.55L64.95 110.55L65.1 109.7L65.1 109.65L65.1 109.35L65.1 109.05L65.05 108.4L64.95 107.85L64.95 107.65L64.95 107.6L64.85 107.1L64.85 106.95L64.8 105.85L64.95 105.15Q65.5 103.75 66.85 102.6Q68.15 101.5 69.85 100.95Q72.2 100.2 74.55 101.2Q76.7 102.1 78.2 104.05Q79.7 105.9 79.8 107.7Q79.95 109.7 78.35 110.6L76.8 110.7Q76.1 110.3 77.25 109.5Q79.65 107.9 76.6 105.35Q73.55 102.85 71.45 103.5Q70.35 103.9 70.05 105.7L69.95 106.1Q69.9 106.3 70.15 106.8L70.2 106.85L70.25 107L70.5 107.4L70.55 107.5L70.9 108.1L70.85 108.1L70.9 108.15L71.1 108.8L71.05 109.25L71.05 109.3L70.75 109.95L70.4 110.4Q70.05 110.85 70.1 111.2L73.2 111.15Q75.1 111.7 75.95 114.25Q76.75 116.6 76.1 118.5Q75.75 119.6 74.5 120.35Q73.3 121.05 72.05 121.1Q70.65 121.2 70.9 120.55Q71.2 119.95 72.35 119.95Q73.3 119.9 73.85 119.25Q74.3 118.65 74.4 117.65Q74.5 116.1 73.45 115.55Q72.25 114.85 71.45 115.55L71.2 115.75L70.9 116.1L70.5 116.45L70.55 116.5L69.9 117.05L69.65 117.25L69.4 117.35L68.7 117.65L68.35 117.8Q68.4 119.4 67.65 120.3L66.75 120.6L65.75 120.85Q65.55 121 65.45 121.65Q65.35 122.2 65 122.15L62.15 121.5L59.2 121.75L58.3 121.95L57.2 122L56.6 121.9Q55.6 121.7 54.55 121.15Q53.15 120.3 52.2 120.15Q50.75 119.85 49.5 120.65Q48.15 121.4 47.9 122.4Q47.7 123.35 48.65 123.85Q48.95 124 48.6 124.25L47.95 124.45Q46.4 124.15 46.65 122.35Q46.95 120.05 50.65 116.85Q50.95 116.6 50.25 116.45Q49.6 116.3 49.25 116.45Q45.8 117.9 44.35 122.65L43.75 124.05Q43.45 124.35 43.3 122.65Q43 119.1 43.55 117.7Q44.25 116 47.05 114.6L42.95 111.45Q40.5 109.55 38.65 108.6L37.6 108.8L36.5 109.1Q34.6 108.5 31.5 106.3L30.5 105.55Q30 105.05 30 104.6Q30.05 103.9 30.7 103.1L31.8 101.75Q26.1 100.7 23.55 98.9Q19.15 95.9 16.35 88.25L19.65 88.2Q19.9 89.85 21.15 91.6Q23.95 95.3 27.85 97.1Q32.1 99 36.35 97.95Q40.9 96.85 44.1 91.8Q38.15 90.7 35.75 88Q34.75 86.85 34.25 85.35L34.1 84.8L34.1 84.75L34.05 84.65L34.05 84.5L33.95 84.1Q33.65 82.4 33.9 80.25L34.4 79.25L34.45 79.1L34.95 78.6Q35.8 77.95 36.85 77.75Q37.75 77.5 38.25 78.35L38.75 79.35Q39 79.7 39.65 79.15Q40.6 78.35 38.55 77.1Q37.15 76.2 35.5 76.9Q34.1 77.5 32.05 79.4L29.05 82.65L26 85.4L25.75 85.55L25.55 85.65L23.85 86.5Q19.45 88.05 15.55 87.1Q11.85 86.2 8.25 83L6.95 81.8Q4 78.9 2.35 75.8Q1 73.15 0.5 70.4Q-1 62.15 1.85 54.15Q4.95 45.3 11.9 41.55Q14.85 39.95 18 40.15Q20.95 40.3 23.1 42Q25.2 43.75 25.6 46.45Q26 49.35 24.1 52.65Q22.9 54.7 19.85 55.1Q16.9 55.55 16.2 53.15Q15.75 51.7 16.2 48.45Q16.4 47.15 17.1 47.15Q17.8 47.2 17.8 47.9L17.45 49.85Q17.35 51.1 18.1 51.65Q19.1 52.3 19.8 52.25Q21.95 52.1 22.85 50.55Q23.65 49.15 23.2 47.3Q22.75 45.45 21.3 44.35Q19.65 43.1 17.55 43.5Q15.2 43.9 12.5 45.95Q9.95 47.85 8 50.45Q5.3 54.15 4.9 59.9Q4.7 63.5 5.4 67.2L5.75 68.8L6.05 69.95L6.85 72.25L7.5 73.55Q8.8 75.85 10.7 77.15L10.8 77.2L10.95 77.25L11.1 77.35L12.05 77.9L13.4 78.55L16 78.95Q15.4 69.4 19.05 62.55Q21.25 58.45 24.3 56.05Q27.05 53.9 29.4 53.9Q31.75 53.9 32.55 55.9Q33.35 57.9 31.55 59.25Q30.95 59.7 30.45 59.8L29.15 59.8Q28.55 59.7 28.4 58.9Q28.25 58.05 29.4 58.3Q29.9 58.45 30.8 57.6Q32.6 55.95 30.1 55.9Q27.65 55.85 26.3 56.95Q23.7 59 20.5 63.95Q18.7 66.85 18.45 71.3Q18.3 73.85 18.45 78.75Q18.45 79 17.95 79.05Q17.35 79.05 17.25 79.2Q17.1 79.35 17.2 79.6L17.4 79.9L20.8 79.25L21.4 79.05L22.95 78.35L22.95 78.3L23.9 77.8Q26.15 76.5 27.55 74.4L28.7 72.25Q31.55 65.4 34.75 60.35Q38.85 53.9 42.5 52.25L40.45 50.95L39.5 50.3L38.95 49.85Q36.6 47.95 35.3 45.85Q34.6 44.75 34.2 43.65L34.15 43.5L33.9 42.7Q33 39.15 33.1 35.9Q33.25 32.25 34.65 29.7Q36.35 26.65 39.05 25.45Q41.75 24.2 43.9 25.55Q45.75 26.75 45.8 28.45Q45.85 30.3 43.25 30.55Q42.55 30.65 42.1 30.2Q41.65 29.8 41.6 29.15L41.65 28.6L41.95 27.95Q42.25 27.55 42.6 27.75L42.7 28.15L42.8 28.55L43.45 28.5L43.9 28.15Q44.1 27.3 43.1 26.8Q42.25 26.3 41.4 26.35Q39.6 26.35 37.8 28.4Q35.3 31.2 35.95 35.95Q36.3 38.6 37.35 40.8L37.35 40.85L37.9 41.8" />
</g>
</svg>
